<svg width="140" height="134" viewBox="0 0 140 134" fill="none" xmlns="http://www.w3.org/2000/svg">
<rect width="140" height="134" rx="67" fill="#E63946" fill-opacity="0.2"/>
<path d="M107.143 39.5909H92.8571V34.2614C92.8571 33.8426 92.5357 33.5 92.1429 33.5H87.1429C86.75 33.5 86.4286 33.8426 86.4286 34.2614V39.5909H73.2143V34.2614C73.2143 33.8426 72.8929 33.5 72.5 33.5H67.5C67.1071 33.5 66.7857 33.8426 66.7857 34.2614V39.5909H53.5714V34.2614C53.5714 33.8426 53.25 33.5 52.8571 33.5H47.8571C47.4643 33.5 47.1429 33.8426 47.1429 34.2614V39.5909H32.8571C31.2768 39.5909 30 40.9518 30 42.6364V97.4545C30 99.1391 31.2768 100.5 32.8571 100.5H107.143C108.723 100.5 110 99.1391 110 97.4545V42.6364C110 40.9518 108.723 39.5909 107.143 39.5909ZM62.1429 83.75C62.1429 84.1688 61.8214 84.5114 61.4286 84.5114H45C44.6071 84.5114 44.2857 84.1688 44.2857 83.75V79.1818C44.2857 78.7631 44.6071 78.4205 45 78.4205H61.4286C61.8214 78.4205 62.1429 78.7631 62.1429 79.1818V83.75ZM62.1429 70.8068C62.1429 71.2256 61.8214 71.5682 61.4286 71.5682H45C44.6071 71.5682 44.2857 71.2256 44.2857 70.8068V66.2386C44.2857 65.8199 44.6071 65.4773 45 65.4773H61.4286C61.8214 65.4773 62.1429 65.8199 62.1429 66.2386V70.8068ZM95.5804 62.1178L80.8482 83.8832C80.7167 84.0778 80.5437 84.2363 80.3434 84.3455C80.1432 84.4548 79.9214 84.5118 79.6964 84.5118C79.4715 84.5118 79.2497 84.4548 79.0494 84.3455C78.8492 84.2363 78.6762 84.0778 78.5446 83.8832L68.3482 68.8273C68.0089 68.3229 68.3482 67.6186 68.9286 67.6186H73.8304C74.2857 67.6186 74.7143 67.8565 74.9821 68.2467L79.6964 75.2037L88.9554 61.5277C89.2232 61.128 89.6518 60.8996 90.1071 60.8996H95C95.5804 60.9091 95.9196 61.6134 95.5804 62.1178Z" fill="#E63946"/>
</svg>
