<svg width="408" height="198" viewBox="0 0 408 198" fill="none" xmlns="http://www.w3.org/2000/svg">
<g filter="url(#filter0_di_117_2955)">
<rect x="40" y="36" width="289" height="74.76" rx="13.6" fill="#E63946" shape-rendering="crispEdges"/>
<path d="M104.588 84.88H97.7019V62.5673H104.893C107.057 62.5673 108.909 63.014 110.449 63.9073C111.989 64.7935 113.169 66.0682 113.99 67.7315C114.811 69.3875 115.221 71.3703 115.221 73.6801C115.221 76.0043 114.807 78.0053 113.979 79.6831C113.151 81.3537 111.945 82.6393 110.362 83.5399C108.778 84.4333 106.854 84.88 104.588 84.88ZM100.404 82.4831H104.413C106.258 82.4831 107.787 82.1272 109 81.4154C110.213 80.7036 111.117 79.6904 111.713 78.3758C112.308 77.0611 112.606 75.4959 112.606 73.6801C112.606 71.8788 112.312 70.3281 111.724 69.0279C111.135 67.7206 110.256 66.7182 109.087 66.021C107.918 65.3164 106.461 64.9642 104.718 64.9642H100.404V82.4831ZM126.203 85.2286C124.692 85.2286 123.367 84.8691 122.226 84.15C121.093 83.431 120.207 82.425 119.568 81.1322C118.936 79.8393 118.62 78.3285 118.62 76.5999C118.62 74.8567 118.936 73.3351 119.568 72.0349C120.207 70.7348 121.093 69.7252 122.226 69.0062C123.367 68.2871 124.692 67.9276 126.203 67.9276C127.714 67.9276 129.036 68.2871 130.169 69.0062C131.309 69.7252 132.195 70.7348 132.827 72.0349C133.466 73.3351 133.786 74.8567 133.786 76.5999C133.786 78.3285 133.466 79.8393 132.827 81.1322C132.195 82.425 131.309 83.431 130.169 84.15C129.036 84.8691 127.714 85.2286 126.203 85.2286ZM126.203 82.9189C127.351 82.9189 128.295 82.6248 129.036 82.0364C129.776 81.4481 130.325 80.6746 130.681 79.7158C131.037 78.7571 131.215 77.7184 131.215 76.5999C131.215 75.4813 131.037 74.4391 130.681 73.4731C130.325 72.507 129.776 71.7262 129.036 71.1307C128.295 70.5351 127.351 70.2373 126.203 70.2373C125.055 70.2373 124.111 70.5351 123.37 71.1307C122.629 71.7262 122.081 72.507 121.725 73.4731C121.369 74.4391 121.191 75.4813 121.191 76.5999C121.191 77.7184 121.369 78.7571 121.725 79.7158C122.081 80.6746 122.629 81.4481 123.37 82.0364C124.111 82.6248 125.055 82.9189 126.203 82.9189ZM140.282 74.8131V84.88H137.711V68.1455H140.195V70.7602H140.413C140.805 69.9104 141.4 69.2277 142.199 68.712C142.998 68.189 144.03 67.9276 145.294 67.9276C146.427 67.9276 147.418 68.16 148.268 68.6248C149.118 69.0824 149.779 69.7797 150.251 70.7167C150.723 71.6463 150.959 72.823 150.959 74.2466V84.88H148.388V74.4209C148.388 73.1063 148.046 72.0821 147.364 71.3486C146.681 70.6077 145.744 70.2373 144.553 70.2373C143.732 70.2373 142.998 70.4152 142.352 70.7711C141.713 71.127 141.208 71.6463 140.838 72.3291C140.467 73.0118 140.282 73.8399 140.282 74.8131ZM160.582 85.2722C159.521 85.2722 158.559 85.0725 157.695 84.673C156.83 84.2663 156.144 83.6816 155.635 82.9189C155.127 82.149 154.873 81.2193 154.873 80.1298C154.873 79.1711 155.062 78.3939 155.439 77.7983C155.817 77.1955 156.322 76.7234 156.954 76.382C157.586 76.0406 158.283 75.7864 159.046 75.6194C159.816 75.445 160.589 75.307 161.366 75.2053C162.383 75.0746 163.207 74.9766 163.839 74.9112C164.479 74.8386 164.943 74.7187 165.234 74.5517C165.532 74.3846 165.681 74.0941 165.681 73.6801V73.5929C165.681 72.5179 165.386 71.6827 164.798 71.0871C164.217 70.4915 163.335 70.1937 162.151 70.1937C160.923 70.1937 159.961 70.4624 159.263 70.9999C158.566 71.5374 158.076 72.1112 157.793 72.7213L155.352 71.8497C155.788 70.8329 156.369 70.0412 157.095 69.4746C157.829 68.9008 158.628 68.5014 159.492 68.2762C160.364 68.0438 161.221 67.9276 162.063 67.9276C162.601 67.9276 163.218 67.9929 163.916 68.1237C164.62 68.2471 165.299 68.505 165.953 68.8972C166.614 69.2894 167.162 69.8814 167.598 70.6731C168.034 71.4648 168.252 72.5252 168.252 73.8544V84.88H165.681V82.6139H165.55C165.376 82.977 165.085 83.3656 164.678 83.7796C164.272 84.1936 163.73 84.5459 163.055 84.8364C162.379 85.127 161.555 85.2722 160.582 85.2722ZM160.974 82.9625C161.991 82.9625 162.848 82.7628 163.545 82.3633C164.25 81.9638 164.78 81.4481 165.136 80.8162C165.499 80.1843 165.681 79.5197 165.681 78.8224V76.4692C165.572 76.5999 165.332 76.7197 164.962 76.8287C164.598 76.9304 164.177 77.0212 163.698 77.1011C163.226 77.1737 162.764 77.2391 162.314 77.2972C161.871 77.348 161.511 77.3916 161.235 77.4279C160.567 77.5151 159.943 77.6567 159.362 77.8528C158.788 78.0416 158.323 78.3285 157.967 78.7135C157.618 79.0912 157.444 79.6069 157.444 80.2606C157.444 81.154 157.775 81.8294 158.435 82.287C159.104 82.7373 159.95 82.9625 160.974 82.9625ZM180.223 68.1455V70.3244H171.55V68.1455H180.223ZM174.078 64.1361H176.649V80.0863C176.649 80.8126 176.754 81.3573 176.965 81.7205C177.183 82.0764 177.459 82.3161 177.793 82.4396C178.134 82.5558 178.494 82.6139 178.872 82.6139C179.155 82.6139 179.387 82.5993 179.569 82.5703C179.75 82.534 179.896 82.5049 180.005 82.4831L180.528 84.7928C180.353 84.8582 180.11 84.9236 179.798 84.989C179.485 85.0616 179.089 85.0979 178.61 85.0979C177.884 85.0979 177.172 84.9417 176.475 84.6294C175.785 84.3171 175.211 83.8414 174.753 83.2022C174.303 82.563 174.078 81.7568 174.078 80.7835V64.1361ZM190.927 85.2286C189.314 85.2286 187.923 84.8727 186.754 84.1609C185.592 83.4419 184.695 82.4396 184.063 81.154C183.438 79.8611 183.126 78.3576 183.126 76.6435C183.126 74.9293 183.438 73.4186 184.063 72.1112C184.695 70.7965 185.574 69.7724 186.7 69.0388C187.833 68.298 189.155 67.9276 190.665 67.9276C191.537 67.9276 192.398 68.0728 193.247 68.3634C194.097 68.6539 194.871 69.126 195.568 69.7797C196.265 70.4261 196.821 71.2832 197.235 72.3509C197.649 73.4186 197.856 74.7332 197.856 76.2948V77.3843H184.956V75.1618H195.241C195.241 74.2175 195.052 73.375 194.675 72.6342C194.304 71.8933 193.774 71.3086 193.084 70.8801C192.401 70.4515 191.595 70.2373 190.665 70.2373C189.641 70.2373 188.755 70.4915 188.007 70.9999C187.266 71.5011 186.696 72.1548 186.296 72.961C185.897 73.7672 185.697 74.6315 185.697 75.554V77.0357C185.697 78.2995 185.915 79.3708 186.351 80.2497C186.794 81.1213 187.408 81.7859 188.192 82.2434C188.977 82.6938 189.888 82.9189 190.927 82.9189C191.602 82.9189 192.212 82.8245 192.757 82.6357C193.309 82.4396 193.785 82.149 194.184 81.7641C194.584 81.3719 194.893 80.8852 195.11 80.3042L197.594 81.0014C197.333 81.844 196.894 82.5848 196.276 83.224C195.659 83.8559 194.896 84.3498 193.988 84.7057C193.08 85.0543 192.06 85.2286 190.927 85.2286ZM228.438 62.5673V84.88H225.823L213.664 67.361H213.446V84.88H210.745V62.5673H213.359L225.562 80.1298H225.78V62.5673H228.438ZM240.294 85.2286C238.783 85.2286 237.458 84.8691 236.318 84.15C235.185 83.431 234.298 82.425 233.659 81.1322C233.027 79.8393 232.711 78.3285 232.711 76.5999C232.711 74.8567 233.027 73.3351 233.659 72.0349C234.298 70.7348 235.185 69.7252 236.318 69.0062C237.458 68.2871 238.783 67.9276 240.294 67.9276C241.805 67.9276 243.127 68.2871 244.26 69.0062C245.4 69.7252 246.286 70.7348 246.918 72.0349C247.557 73.3351 247.877 74.8567 247.877 76.5999C247.877 78.3285 247.557 79.8393 246.918 81.1322C246.286 82.425 245.4 83.431 244.26 84.15C243.127 84.8691 241.805 85.2286 240.294 85.2286ZM240.294 82.9189C241.442 82.9189 242.386 82.6248 243.127 82.0364C243.868 81.4481 244.416 80.6746 244.772 79.7158C245.128 78.7571 245.306 77.7184 245.306 76.5999C245.306 75.4813 245.128 74.4391 244.772 73.4731C244.416 72.507 243.868 71.7262 243.127 71.1307C242.386 70.5351 241.442 70.2373 240.294 70.2373C239.147 70.2373 238.202 70.5351 237.462 71.1307C236.721 71.7262 236.172 72.507 235.816 73.4731C235.461 74.4391 235.283 75.4813 235.283 76.5999C235.283 77.7184 235.461 78.7571 235.816 79.7158C236.172 80.6746 236.721 81.4481 237.462 82.0364C238.202 82.6248 239.147 82.9189 240.294 82.9189ZM255.024 84.88L249.925 68.1455H252.627L256.244 80.9578H256.419L259.992 68.1455H262.738L266.268 80.9143H266.442L270.059 68.1455H272.761L267.662 84.88H265.135L261.474 72.024H261.212L257.552 84.88H255.024Z" fill="white"/>
<g filter="url(#filter1_df_117_2955)">
<circle cx="156" cy="103" r="34" fill="#D9D9D9" fill-opacity="0.04"/>
<circle cx="156" cy="103" r="26" fill="white" fill-opacity="0.06" stroke="white" stroke-opacity="0.6" stroke-width="2"/>
</g>
<path d="M160.028 103.547C159.743 103.617 159.477 103.75 159.249 103.934C159.021 104.119 158.836 104.352 158.708 104.616C158.58 104.881 158.512 105.17 158.508 105.464C158.505 105.757 158.566 106.048 158.687 106.315L171.309 136.346C171.966 137.791 173.962 137.932 174.816 136.594L179.347 129.745L183.562 133.611C185.987 135.835 188.686 135.719 190.91 133.295C193.133 130.871 193.016 128.171 190.592 125.947L186.392 122.095L192.731 117.061C193.991 116.096 193.678 114.119 192.183 113.588L161.176 103.602C160.807 103.472 160.408 103.453 160.028 103.547Z" fill="black"/>
</g>
<defs>
<filter id="filter0_di_117_2955" x="0" y="0" width="408" height="198" filterUnits="userSpaceOnUse" color-interpolation-filters="sRGB">
<feFlood flood-opacity="0" result="BackgroundImageFix"/>
<feColorMatrix in="SourceAlpha" type="matrix" values="0 0 0 0 0 0 0 0 0 0 0 0 0 0 0 0 0 0 127 0" result="hardAlpha"/>
<feOffset dy="4"/>
<feGaussianBlur stdDeviation="20"/>
<feComposite in2="hardAlpha" operator="out"/>
<feColorMatrix type="matrix" values="0 0 0 0 0 0 0 0 0 0 0 0 0 0 0 0 0 0 0.6 0"/>
<feBlend mode="normal" in2="BackgroundImageFix" result="effect1_dropShadow_117_2955"/>
<feBlend mode="normal" in="SourceGraphic" in2="effect1_dropShadow_117_2955" result="shape"/>
<feColorMatrix in="SourceAlpha" type="matrix" values="0 0 0 0 0 0 0 0 0 0 0 0 0 0 0 0 0 0 127 0" result="hardAlpha"/>
<feOffset dy="4"/>
<feGaussianBlur stdDeviation="2"/>
<feComposite in2="hardAlpha" operator="arithmetic" k2="-1" k3="1"/>
<feColorMatrix type="matrix" values="0 0 0 0 0 0 0 0 0 0 0 0 0 0 0 0 0 0 0.25 0"/>
<feBlend mode="normal" in2="shape" result="effect2_innerShadow_117_2955"/>
</filter>
<filter id="filter1_df_117_2955" x="114" y="61" width="84" height="84" filterUnits="userSpaceOnUse" color-interpolation-filters="sRGB">
<feFlood flood-opacity="0" result="BackgroundImageFix"/>
<feColorMatrix in="SourceAlpha" type="matrix" values="0 0 0 0 0 0 0 0 0 0 0 0 0 0 0 0 0 0 127 0" result="hardAlpha"/>
<feOffset dy="4"/>
<feGaussianBlur stdDeviation="2"/>
<feComposite in2="hardAlpha" operator="out"/>
<feColorMatrix type="matrix" values="0 0 0 0 0 0 0 0 0 0 0 0 0 0 0 0 0 0 0.25 0"/>
<feBlend mode="normal" in2="BackgroundImageFix" result="effect1_dropShadow_117_2955"/>
<feBlend mode="normal" in="SourceGraphic" in2="effect1_dropShadow_117_2955" result="shape"/>
<feGaussianBlur stdDeviation="4" result="effect2_foregroundBlur_117_2955"/>
</filter>
</defs>
</svg>
