<svg width="340" height="195" viewBox="0 0 340 195" fill="none" xmlns="http://www.w3.org/2000/svg">
<path d="M173.054 190.81C173.054 190.81 287.906 191.946 319.897 166.384C351.889 140.822 339.847 115.338 315.352 108.118C290.856 100.899 286.678 93.3915 299.858 83.2643C313.039 73.1371 329.779 52.3493 301.984 31.4588C274.189 10.5684 242.474 40.5742 217.632 36.5897C192.79 32.6053 202.629 19.1857 169.96 28.4533C137.29 37.7208 144.494 10.7377 118.23 8.29207C91.9657 5.84625 94.6577 36.3577 67.6432 24.8403C40.6285 13.3231 18.5322 14.9124 6.91792 33.2032C-4.69619 51.494 -2.14588 88.0804 23.3337 102.762C48.8133 117.444 48.5733 104.491 39.0508 118.918C29.5284 133.345 20.9895 180.787 64.3399 187.563C107.69 194.34 173.054 190.81 173.054 190.81Z" fill="url(#paint0_linear_117_2707)"/>
<path d="M59.812 43.1563L52.5194 58.7787C50.5875 62.9176 50.6626 67.7111 52.7234 71.7877L65.0929 96.2561C66.4954 99.0305 66.994 102.173 66.5193 105.243L64.4494 118.63C63.6736 123.647 65.5102 128.714 69.3236 132.076C75.3759 137.412 84.583 136.988 90.1161 131.117L98.8889 121.81C103.002 117.446 104.098 111.052 101.673 105.573L93.6759 87.5026C92.6542 85.1939 92.2366 82.6644 92.4619 80.1507L94.7864 54.2419C95.3223 48.2691 92.2193 42.557 86.9103 39.7436L80.3783 36.282C72.8145 32.2738 63.4274 35.4114 59.812 43.1563Z" fill="#BDD0FB"/>
<path d="M80.7437 139.176C80.7021 139.179 80.6599 139.178 80.6171 139.174C80.1975 139.132 79.891 138.759 79.9327 138.34C83.8031 99.4588 72.7303 58.1985 71.7467 56.1189C71.5513 55.8628 71.5339 55.5002 71.7285 55.222C71.9696 54.8771 72.4456 54.7922 72.7916 55.0331C73.0122 55.1867 73.158 55.288 73.8053 57.5136C74.1036 58.5395 74.5956 60.3312 75.2446 63.0416C76.2198 67.1133 77.6652 73.749 79.0145 82.2384C81.2691 96.4241 83.5221 117.698 81.4524 138.491C81.415 138.867 81.1096 139.152 80.7437 139.176ZM71.9162 56.2814C71.9168 56.2817 71.9172 56.2821 71.9179 56.2826C71.9174 56.2821 71.9168 56.2817 71.9162 56.2814ZM71.9148 56.2804L71.9151 56.2806L71.9148 56.2804Z" fill="#91B3FA"/>
<path d="M279.028 146.685C283.019 140.425 284.562 133.476 283.808 127.402C283.133 121.972 284.551 116.469 287.856 112.109C288.204 111.651 288.537 111.173 288.854 110.676C293.654 103.147 292.92 94.11 287.216 90.4911C281.511 86.8721 272.995 90.0415 268.195 97.5702C267.213 99.1098 266.464 100.712 265.941 102.318C264.271 107.444 260.786 111.816 256.044 114.405C251.807 116.718 247.879 120.333 244.887 125.026C240.424 132.026 239.022 139.888 240.47 146.424C241.017 148.896 241.116 151.456 240.74 153.958C240.115 158.116 241.501 162.082 244.704 164.113C248.159 166.305 252.761 165.633 256.421 162.804C258.492 161.202 260.853 160.028 263.353 159.24C269.256 157.381 274.992 153.014 279.028 146.685Z" fill="#91B3FA"/>
<path d="M284.107 99.7675C281.68 105.216 279.079 110.582 276.422 115.922C275.758 117.257 275.073 118.581 274.393 119.907L273.371 121.897L272.333 123.878C271.636 125.196 270.957 126.524 270.244 127.834L268.108 131.764C266.65 134.367 265.215 136.981 263.709 139.556C262.957 140.845 262.231 142.147 261.454 143.421L259.139 147.251C256.002 152.326 252.735 157.325 249.221 162.149L249.011 162L251.503 158.291L252.127 157.365L252.729 156.424L253.928 154.539L255.131 152.658C255.533 152.031 255.911 151.389 256.303 150.756C257.077 149.484 257.861 148.219 258.628 146.942C261.659 141.815 264.622 136.648 267.478 131.421C268.886 128.796 270.317 126.184 271.706 123.549L272.754 121.576L273.785 119.594C274.474 118.274 275.162 116.953 275.837 115.625C277.209 112.981 278.562 110.328 279.894 107.663C281.24 105.005 282.561 102.334 283.873 99.6598L284.107 99.7675Z" fill="#BDD0FB"/>
<path d="M86.8783 127.776C82.2173 120.964 75.777 116.344 69.2253 114.449C63.3685 112.755 58.3549 108.898 55.3389 103.618C55.0219 103.063 54.6784 102.514 54.3083 101.973C48.7026 93.7798 39.1257 90.5641 32.9176 94.7905C26.7096 99.0168 26.2213 109.085 31.827 117.278C32.9732 118.953 34.2855 120.42 35.701 121.657C40.2185 125.606 43.1681 131.075 43.74 137.042C44.2513 142.375 46.2306 147.962 49.725 153.069C54.9368 160.687 62.3736 165.563 69.7028 166.954C72.4751 167.48 75.14 168.503 77.5377 169.983C81.522 172.443 86.1913 172.769 89.6766 170.396C93.4364 167.836 94.7663 162.852 93.4732 157.882C92.7416 155.069 92.5745 152.149 92.8639 149.255C93.5474 142.424 91.5909 134.664 86.8783 127.776Z" fill="#BDD0FB"/>
<path d="M41.055 102.027C45.5708 106.889 49.9262 111.893 54.2293 116.941C55.3056 118.203 56.3615 119.482 57.4215 120.757L59.0113 122.671L60.5848 124.597C61.629 125.886 62.6909 127.16 63.7204 128.46L66.8091 132.361C68.8349 134.988 70.8829 137.597 72.8596 140.261C73.8499 141.592 74.8659 142.903 75.8291 144.254L78.7367 148.291C82.5588 153.714 86.2459 159.235 89.646 164.932L89.4014 165.08L86.6948 160.915L86.0207 159.872L85.3204 158.847L83.9162 156.798L82.5161 154.747C82.0508 154.063 81.5597 153.396 81.0828 152.719C80.1199 151.372 79.1678 150.018 78.1961 148.678C74.2747 143.34 70.2821 138.055 66.1807 132.852C64.11 130.266 62.0619 127.663 59.9731 125.092L58.4118 123.159L56.8344 121.239C55.7836 119.959 54.7327 118.678 53.6688 117.408C51.5629 114.85 49.4385 112.307 47.2932 109.781C45.1615 107.245 43.005 104.727 40.8418 102.218L41.055 102.027Z" fill="#91B3FA"/>
<path d="M213.171 156.84C199.206 148.973 192.151 128.447 197.99 120.751C203.055 114.076 216.04 119.394 219.192 113.187C222.979 105.732 206.182 94.2432 209.746 85.5202C213.165 77.154 231.082 81.6858 234.682 73.4097C238.527 64.5697 220.144 54.6659 222.638 42.0842C224.718 31.5911 240.631 22.709 255.124 25.4864C266.919 27.7466 278.824 37.9297 278.129 47.115C277.18 59.6526 253.412 61.6783 252.785 73.911C252.207 85.199 272.074 90.7001 270.743 100.724C269.311 111.513 245.216 113.251 245.103 121.923C245.005 129.543 263.563 131.566 264.096 139.213C264.801 149.326 233.936 168.537 213.171 156.84Z" fill="#BDD0FB"/>
<path d="M249.802 40.8953C248.538 50.1138 247.011 59.286 245.372 68.436C244.566 73.0139 243.68 77.5758 242.813 82.1419C242.371 84.4231 241.899 86.6982 241.442 88.9767C240.98 91.2537 240.531 93.534 240.036 95.8043L238.569 102.619C238.063 104.887 237.568 107.157 237.045 109.421L236.656 111.12L236.253 112.815L235.447 116.206L234.634 119.596L233.773 122.974C231.48 131.976 229.038 140.965 225.827 149.686L225.654 149.627C228.158 140.689 230.213 131.644 232.241 122.59L232.999 119.195L233.737 115.794L234.481 112.395L234.853 110.696L235.21 108.993C235.68 106.72 236.179 104.455 236.666 102.186L238.091 95.3725L243.786 68.1098C245.682 59.0197 247.601 49.9328 249.622 40.8617L249.802 40.8953Z" fill="#91B3FA"/>
<path d="M205.487 124.55L204.643 124.317C204.545 124.29 204.488 124.189 204.515 124.092C204.542 123.995 204.643 123.938 204.74 123.965C204.741 123.965 204.742 123.965 204.744 123.965L204.753 123.968L205.575 124.216L205.583 124.218C205.674 124.246 205.726 124.342 205.699 124.433C205.671 124.523 205.577 124.575 205.487 124.55Z" fill="white"/>
<path d="M202.988 123.725L201.398 122.976C201.287 122.924 201.239 122.791 201.291 122.68C201.344 122.568 201.477 122.521 201.589 122.573C201.59 122.574 201.591 122.574 201.593 122.575L201.613 122.585L203.149 123.352L203.166 123.361C203.266 123.411 203.307 123.533 203.257 123.633C203.207 123.732 203.088 123.772 202.988 123.725Z" fill="white"/>
<path d="M199.886 122.08L198.462 121.048C198.347 120.965 198.321 120.804 198.405 120.69C198.488 120.575 198.649 120.55 198.764 120.633C198.765 120.633 198.766 120.634 198.767 120.635L198.785 120.649L200.156 121.679L200.173 121.692C200.28 121.772 200.301 121.923 200.221 122.03C200.142 122.135 199.992 122.157 199.886 122.08Z" fill="white"/>
<path d="M197.131 119.897L195.901 118.641C195.79 118.528 195.792 118.347 195.905 118.236C196.019 118.126 196.201 118.128 196.311 118.241C196.312 118.242 196.313 118.242 196.314 118.243L196.331 118.261L197.509 119.505L197.524 119.521C197.627 119.63 197.622 119.802 197.513 119.905C197.405 120.007 197.235 120.003 197.131 119.897Z" fill="white"/>
<path d="M194.772 117.293L193.749 115.862C193.647 115.72 193.68 115.522 193.823 115.421C193.965 115.319 194.163 115.352 194.265 115.495C194.266 115.496 194.267 115.497 194.267 115.498L194.281 115.518L195.254 116.928L195.266 116.947C195.361 117.084 195.326 117.271 195.189 117.366C195.053 117.459 194.867 117.426 194.772 117.293Z" fill="white"/>
<path d="M192.832 114.361L192.025 112.798C191.937 112.628 192.004 112.419 192.175 112.331C192.345 112.243 192.555 112.31 192.643 112.48C192.643 112.482 192.644 112.483 192.644 112.484L192.656 112.507L193.415 114.041L193.425 114.062C193.506 114.226 193.439 114.425 193.275 114.506C193.112 114.586 192.915 114.521 192.832 114.361Z" fill="white"/>
<path d="M191.329 111.18L190.746 109.519C190.677 109.323 190.781 109.108 190.978 109.04C191.174 108.971 191.39 109.074 191.458 109.271C191.459 109.272 191.459 109.273 191.46 109.275L191.469 109.301L192.006 110.924L192.014 110.948C192.077 111.137 191.974 111.341 191.784 111.404C191.596 111.466 191.394 111.366 191.329 111.18Z" fill="white"/>
<path d="M190.285 107.819L189.945 106.09C189.903 105.875 190.043 105.667 190.258 105.625C190.473 105.583 190.682 105.723 190.724 105.938L190.725 105.942L190.73 105.969L191.042 107.647L191.047 107.674C191.086 107.884 190.946 108.086 190.736 108.125C190.527 108.164 190.326 108.027 190.285 107.819Z" fill="white"/>
<path d="M189.729 104.34L189.644 102.576C189.632 102.348 189.809 102.154 190.038 102.143C190.268 102.131 190.462 102.308 190.473 102.536L190.474 102.541L190.475 102.572L190.539 104.275L190.54 104.305C190.549 104.529 190.374 104.717 190.15 104.725C189.928 104.734 189.74 104.561 189.729 104.34Z" fill="white"/>
<path d="M189.689 100.815L189.849 99.0608C189.871 98.8228 190.082 98.6473 190.32 98.669C190.559 98.6906 190.735 98.9011 190.713 99.1392L190.713 99.1438L190.71 99.1709L190.537 100.869L190.534 100.896C190.51 101.129 190.302 101.298 190.069 101.275C189.837 101.251 189.668 101.046 189.689 100.815Z" fill="white"/>
<path d="M190.119 97.3203L190.493 95.5997C190.546 95.3563 190.787 95.2018 191.031 95.2547C191.275 95.3075 191.43 95.5478 191.377 95.7912L191.376 95.7959L191.37 95.8219L190.989 97.4866L190.983 97.5125C190.929 97.7504 190.691 97.8992 190.453 97.8448C190.216 97.7908 190.067 97.5564 190.119 97.3203Z" fill="white"/>
<path d="M190.968 93.9045L191.537 92.239C191.621 91.9936 191.889 91.8627 192.135 91.9462C192.381 92.0299 192.512 92.2966 192.428 92.542L192.427 92.5466L192.418 92.5707L191.848 94.182L191.84 94.2061C191.755 94.4456 191.492 94.5714 191.251 94.4869C191.013 94.4029 190.887 94.1428 190.968 93.9045Z" fill="white"/>
<path d="M192.196 90.607L192.937 89.0114C193.05 88.7671 193.341 88.6607 193.586 88.774C193.831 88.8872 193.938 89.1773 193.824 89.4216L193.822 89.4262L193.811 89.4482L193.074 90.9918L193.064 91.0138C192.95 91.2524 192.664 91.3536 192.424 91.24C192.187 91.1273 192.085 90.8446 192.196 90.607Z" fill="white"/>
<path d="M193.755 87.4548L194.647 85.9389C194.789 85.6979 195.099 85.6171 195.341 85.7585C195.583 85.8999 195.664 86.21 195.522 86.451L195.519 86.4557L195.507 86.4756L194.624 87.9422L194.612 87.9622C194.47 88.1973 194.164 88.2734 193.928 88.1322C193.694 87.9915 193.618 87.6893 193.755 87.4548Z" fill="white"/>
<path d="M195.606 84.4653L196.63 83.0354C196.798 82.8002 197.126 82.7455 197.362 82.9135C197.598 83.0815 197.653 83.4085 197.484 83.6438L197.481 83.6479L197.468 83.6659L196.457 85.0499L196.444 85.068C196.276 85.2979 195.953 85.3484 195.722 85.1809C195.493 85.0143 195.442 84.6949 195.606 84.4653Z" fill="white"/>
<path d="M197.717 81.6536L198.859 80.318C199.05 80.0955 199.385 80.0691 199.608 80.2589C199.831 80.4487 199.858 80.783 199.667 81.0055L199.666 81.0069L199.652 81.023L198.533 82.3222L198.519 82.3385C198.329 82.559 197.996 82.5842 197.775 82.3947C197.554 82.2054 197.527 81.8743 197.717 81.6536Z" fill="white"/>
<path d="M200.054 79.0293L201.298 77.7883C201.507 77.5791 201.847 77.5791 202.057 77.7883C202.267 77.9974 202.267 78.3366 202.057 78.5458L202.056 78.5471L202.041 78.5617L200.822 79.7691L200.807 79.7837C200.598 79.991 200.26 79.9898 200.052 79.7811C199.844 79.5724 199.844 79.2364 200.054 79.0293Z" fill="white"/>
<path d="M202.589 76.5952C203.028 76.2056 203.477 75.8294 203.926 75.4521C204.155 75.2593 204.498 75.2885 204.691 75.5173C204.885 75.746 204.855 76.0879 204.626 76.2807L204.625 76.2818L204.616 76.2889C204.177 76.656 203.736 77.0222 203.307 77.4009C203.083 77.5981 202.742 77.5772 202.544 77.3542C202.347 77.1316 202.366 76.7924 202.589 76.5952Z" fill="white"/>
<path d="M205.304 74.3596L206.719 73.3185C206.963 73.1388 207.307 73.1907 207.487 73.4341C207.667 73.6775 207.615 74.0205 207.371 74.2L207.369 74.2013L207.353 74.2129L205.967 75.2258L205.951 75.2374C205.707 75.4151 205.366 75.3624 205.187 75.1198C205.009 74.877 205.06 74.5372 205.304 74.3596Z" fill="white"/>
<path d="M208.169 72.3294L209.654 71.3924C209.913 71.2288 210.256 71.3058 210.42 71.5642C210.584 71.8226 210.507 72.1647 210.247 72.3284L210.246 72.3295L210.229 72.3398L208.775 73.251L208.758 73.2614C208.5 73.4231 208.159 73.3454 207.997 73.0879C207.835 72.8301 207.911 72.491 208.169 72.3294Z" fill="white"/>
<path d="M211.17 70.5081L212.716 69.6766C212.989 69.5298 213.33 69.6314 213.477 69.9037C213.624 70.1758 213.522 70.5154 213.249 70.6622L213.247 70.6632L213.231 70.6722L211.716 71.4802L211.699 71.4893C211.427 71.6342 211.089 71.532 210.943 71.2608C210.798 70.9895 210.899 70.653 211.17 70.5081Z" fill="white"/>
<path d="M214.29 68.8984L215.889 68.1738C216.174 68.0445 216.511 68.1704 216.64 68.4551C216.77 68.7396 216.644 69.0751 216.358 69.2044L216.356 69.2052L216.339 69.213L214.772 69.9165L214.754 69.9243C214.47 70.0519 214.136 69.9255 214.008 69.6421C213.881 69.3583 214.005 69.0258 214.29 68.8984Z" fill="white"/>
<path d="M217.512 67.5031L219.157 66.8865C219.454 66.7754 219.784 66.9251 219.896 67.2208C220.007 67.5166 219.857 67.8462 219.561 67.9574L219.559 67.9582L219.541 67.9648L217.929 68.5624L217.911 68.569C217.616 68.6785 217.288 68.5285 217.178 68.234C217.068 67.9393 217.217 67.6125 217.512 67.5031Z" fill="white"/>
<path d="M220.823 66.3245L222.506 65.8175C222.812 65.7252 223.136 65.8981 223.228 66.2038C223.321 66.5094 223.148 66.832 222.841 66.9243L222.839 66.9249L222.821 66.9303L221.172 67.4206L221.154 67.4261C220.849 67.5168 220.528 67.3436 220.437 67.0393C220.346 66.7349 220.518 66.4152 220.823 66.3245Z" fill="white"/>
<path d="M224.205 65.3657L225.919 64.9695C226.235 64.8967 226.549 65.0923 226.622 65.4067C226.695 65.721 226.499 66.0347 226.184 66.1075L226.182 66.108L226.163 66.1122L224.485 66.4941L224.466 66.4984C224.153 66.5698 223.84 66.3741 223.769 66.0611C223.698 65.748 223.892 65.4371 224.205 65.3657Z" fill="white"/>
<path d="M227.644 64.6296L229.38 64.349C229.7 64.2971 230.002 64.5145 230.054 64.8344C230.107 65.1544 229.889 65.4558 229.568 65.5076L229.549 65.5107L227.852 65.7855L227.833 65.7886C227.512 65.8405 227.21 65.6232 227.158 65.3032C227.105 64.983 227.323 64.6815 227.644 64.6296Z" fill="white"/>
<path d="M231.123 64.1265L232.873 63.961C233.194 63.9306 233.48 64.1658 233.51 64.4866C233.541 64.8072 233.305 65.0919 232.983 65.1223L232.965 65.124L231.254 65.2894L231.235 65.2912C230.912 65.3224 230.626 65.0869 230.594 64.7653C230.563 64.4438 230.799 64.1577 231.122 64.1265H231.123Z" fill="white"/>
<path d="M234.629 63.8525L236.388 63.802C236.709 63.7928 236.976 64.0448 236.985 64.3648C236.995 64.6848 236.742 64.9517 236.421 64.9609L236.403 64.9615L234.683 65.0145L234.664 65.0151C234.342 65.0251 234.073 64.7728 234.064 64.4519C234.054 64.1308 234.306 63.8625 234.628 63.8527L234.629 63.8525Z" fill="white"/>
<path d="M238.146 63.8096L239.903 63.8757C240.222 63.8876 240.471 64.1551 240.459 64.473C240.447 64.791 240.178 65.039 239.86 65.027L239.841 65.0264L238.123 64.9653L238.103 64.9647C237.784 64.9533 237.534 64.6855 237.545 64.3666C237.556 64.0476 237.825 63.7983 238.145 63.8096H238.146Z" fill="white"/>
<path d="M241.657 64.0006L243.405 64.1847C243.72 64.2179 243.949 64.4998 243.916 64.8141C243.882 65.1286 243.6 65.3567 243.285 65.3233L243.266 65.3215L241.557 65.1449L241.537 65.1429C241.221 65.1102 240.991 64.828 241.024 64.5126C241.057 64.197 241.34 63.9678 241.656 64.0005L241.657 64.0006Z" fill="white"/>
<path d="M245.146 64.4287L246.877 64.7323C247.187 64.7866 247.395 65.0816 247.34 65.3912C247.286 65.7006 246.99 65.9074 246.679 65.8529L246.661 65.8497L244.969 65.5564L244.949 65.553C244.638 65.499 244.429 65.2035 244.483 64.8929C244.537 64.5822 244.834 64.3743 245.145 64.4282L245.146 64.4287Z" fill="white"/>
<path d="M248.595 65.096L250.301 65.5204C250.604 65.596 250.789 65.9029 250.713 66.2058C250.638 66.5087 250.33 66.693 250.026 66.6174L250.008 66.6128L248.341 66.2016L248.321 66.1969C248.016 66.1216 247.83 65.8142 247.906 65.5102C247.981 65.2061 248.289 65.0205 248.594 65.0957L248.595 65.096Z" fill="white"/>
<path d="M251.99 66.0055L253.661 66.5517C253.957 66.6483 254.118 66.9656 254.021 67.2606C253.924 67.5554 253.606 67.716 253.31 67.6194L253.292 67.6134L251.659 67.0833L251.639 67.0771C251.343 66.9808 251.18 66.6628 251.277 66.3667C251.373 66.0708 251.692 65.9088 251.989 66.0051L251.99 66.0055Z" fill="white"/>
<path d="M255.312 67.1583L256.938 67.8131C257.224 67.9286 257.363 68.2538 257.247 68.5397C257.132 68.8256 256.805 68.9638 256.519 68.8483L256.507 68.8436L254.907 68.203L254.893 68.1973C254.605 68.0821 254.466 67.756 254.581 67.469C254.697 67.182 255.023 67.0427 255.311 67.1579L255.312 67.1583Z" fill="white"/>
<path d="M258.545 68.5014L260.138 69.2102C260.418 69.3351 260.544 69.663 260.419 69.9428C260.294 70.2226 259.965 70.3482 259.685 70.2234L259.681 70.2218L258.097 69.5208L258.091 69.5182C257.81 69.3936 257.682 69.0648 257.807 68.7838C257.932 68.5029 258.262 68.3763 258.543 68.5008L258.545 68.5014Z" fill="white"/>
<path d="M261.721 69.9278L263.303 70.6425L263.306 70.6437C263.583 70.7693 263.707 71.0959 263.581 71.3731C263.455 71.6503 263.128 71.7737 262.85 71.6481L261.263 70.9347C260.984 70.8092 260.86 70.4819 260.985 70.2035C261.111 69.9251 261.439 69.801 261.718 69.9265L261.719 69.9269L261.721 69.9278Z" fill="white"/>
<path d="M264.887 71.3428L266.477 72.0168L266.488 72.0212C266.767 72.1395 266.897 72.4609 266.778 72.7393C266.66 73.0177 266.339 73.1479 266.06 73.0296L264.448 72.3508C264.168 72.2327 264.037 71.9105 264.155 71.631C264.273 71.3516 264.596 71.2208 264.877 71.3387L264.878 71.3391L264.887 71.3428Z" fill="white"/>
<path d="M268.079 72.6516L269.696 73.234L269.715 73.2409C269.998 73.3429 270.145 73.6547 270.043 73.9371C269.94 74.2197 269.629 74.3663 269.346 74.2644L267.691 73.6721C267.406 73.5703 267.258 73.2578 267.36 72.9742C267.462 72.6906 267.776 72.5432 268.06 72.6448L268.061 72.6453L268.079 72.6516Z" fill="white"/>
<path d="M271.331 73.7493L272.984 74.1814L273.014 74.1891C273.303 74.2646 273.476 74.5599 273.4 74.8484C273.324 75.137 273.029 75.3099 272.74 75.2343L271.029 74.7909C270.738 74.7156 270.564 74.4197 270.639 74.1301C270.715 73.8404 271.011 73.6665 271.302 73.7418L271.303 73.7421L271.331 73.7493Z" fill="white"/>
<path d="M274.655 74.5136L276.34 74.7295L276.38 74.7347C276.675 74.7725 276.882 75.0412 276.845 75.3351C276.807 75.629 276.539 75.8368 276.244 75.7988L274.48 75.5765C274.184 75.5392 273.975 75.27 274.012 74.975C274.05 74.6801 274.319 74.4712 274.615 74.5085L274.616 74.5087L274.655 74.5136Z" fill="white"/>
<path d="M278.033 74.8142L279.723 74.7551L279.77 74.7534C280.065 74.7431 280.312 74.973 280.323 75.267C280.333 75.5609 280.104 75.8077 279.809 75.818L278.025 75.8842C277.729 75.8952 277.48 75.6649 277.469 75.3699C277.458 75.0749 277.689 74.8269 277.985 74.8159H277.986L278.033 74.8142Z" fill="white"/>
<path d="M281.396 74.541L283.037 74.1597L283.089 74.1477C283.374 74.0814 283.659 74.2583 283.725 74.5428C283.792 74.8273 283.615 75.1114 283.33 75.1776L281.586 75.5867C281.3 75.6538 281.013 75.4769 280.946 75.1916C280.879 74.9063 281.056 74.6205 281.342 74.5534L281.343 74.5531L281.396 74.541Z" fill="white"/>
<path d="M284.634 73.6179L286.174 72.9258L286.218 72.9057C286.484 72.7865 286.796 72.9043 286.915 73.1689C287.035 73.4335 286.918 73.7441 286.652 73.8634L285.024 74.5993C284.758 74.7195 284.445 74.6017 284.324 74.3365C284.204 74.0713 284.322 73.7589 284.588 73.6386L284.588 73.6382L284.634 73.6179Z" fill="white"/>
<path d="M287.646 72.0949L289.042 71.1382L289.079 71.1129C289.316 70.9501 289.641 71.0102 289.804 71.247C289.967 71.4837 289.909 71.8065 289.671 71.9693L288.205 72.9829C287.967 73.1477 287.64 73.0885 287.474 72.8507C287.309 72.613 287.369 72.2865 287.607 72.1218L287.609 72.1205L287.646 72.0949Z" fill="white"/>
<path d="M290.352 70.0669L291.571 68.8904L291.601 68.8615C291.804 68.6659 292.128 68.6713 292.324 68.8735C292.519 69.075 292.514 69.3959 292.314 69.5918L291.042 70.8345C290.838 71.0336 290.511 71.0302 290.312 70.827C290.112 70.6239 290.116 70.2977 290.319 70.0987L290.322 70.0964L290.352 70.0669Z" fill="white"/>
<path d="M292.692 67.6192L293.708 66.2604L293.732 66.2283C293.897 66.0075 294.211 65.962 294.432 66.1268C294.652 66.2908 294.698 66.6016 294.536 66.8222L293.48 68.252C293.315 68.4763 292.998 68.5242 292.774 68.359C292.549 68.194 292.501 67.8782 292.666 67.6539L292.668 67.6514L292.692 67.6192Z" fill="white"/>
<path d="M294.612 64.8256L295.396 63.3227L295.414 63.2873C295.539 63.0483 295.835 62.9554 296.074 63.0798C296.313 63.2037 296.406 63.4967 296.284 63.7352L295.472 65.314C295.347 65.5565 295.049 65.6523 294.806 65.5281C294.563 65.4037 294.467 65.1064 294.592 64.8638L294.593 64.8611L294.612 64.8256Z" fill="white"/>
<path d="M296.055 61.7599L296.578 60.1491L296.591 60.1099C296.672 59.8592 296.942 59.7219 297.193 59.8031C297.443 59.8841 297.581 60.1514 297.501 60.4011L296.964 62.0934C296.883 62.3475 296.611 62.4882 296.356 62.4076C296.101 62.327 295.96 62.0558 296.041 61.8017L296.042 61.7987L296.055 61.7599Z" fill="white"/>
<path d="M296.958 58.5006L297.077 57.6634C297.113 57.3836 297.167 57.1066 297.188 56.8245C297.207 56.5675 297.431 56.3746 297.689 56.3938C297.946 56.4129 298.139 56.6352 298.121 56.891L298.12 56.9062C298.1 57.2012 298.046 57.4937 298.01 57.7875L297.889 58.6681C297.854 58.9262 297.615 59.107 297.356 59.0717C297.098 59.0363 296.917 58.7985 296.952 58.5402L296.952 58.5377L296.958 58.5006Z" fill="white"/>
<path d="M297.27 55.1311L297.211 53.4366L297.21 53.3995C297.201 53.1481 297.399 52.9373 297.651 52.9285C297.902 52.9199 298.112 53.1153 298.123 53.3653L298.195 55.1344C298.205 55.3888 298.007 55.6033 297.752 55.6137C297.497 55.6242 297.282 55.4263 297.271 55.172L297.271 55.1691L297.27 55.1311Z" fill="white"/>
<path d="M297.016 51.751L296.686 50.0842L296.679 50.0499C296.631 49.809 296.789 49.5751 297.03 49.5277C297.271 49.4804 297.504 49.6358 297.553 49.8752L297.908 51.6088C297.957 51.8525 297.8 52.0902 297.556 52.1398C297.311 52.1894 297.073 52.0322 297.023 51.7886L297.023 51.7859L297.016 51.751Z" fill="white"/>
<path d="M296.227 48.4467L295.642 46.8485L295.63 46.817C295.548 46.5919 295.664 46.3429 295.889 46.2607C296.114 46.1789 296.363 46.2936 296.446 46.5168L297.065 48.1746C297.15 48.402 297.034 48.6549 296.806 48.7397C296.578 48.8243 296.324 48.7087 296.239 48.4813L296.239 48.4787L296.227 48.4467Z" fill="white"/>
<path d="M294.934 45.2996L294.109 43.8099L294.093 43.7811C293.979 43.5765 294.054 43.3192 294.259 43.2062C294.463 43.0936 294.72 43.1668 294.834 43.3695L295.701 44.9118C295.817 45.1182 295.743 45.3794 295.536 45.4952C295.329 45.611 295.067 45.5374 294.951 45.331L294.95 45.3287L294.934 45.2996Z" fill="white"/>
<path d="M293.17 42.39L292.121 41.0501L292.101 41.0238C291.96 40.8445 291.992 40.5854 292.172 40.4452C292.351 40.3056 292.609 40.3368 292.75 40.5145L293.849 41.9003C293.993 42.0812 293.962 42.3439 293.78 42.487C293.599 42.6302 293.336 42.5994 293.192 42.4186L293.191 42.4166L293.17 42.39Z" fill="white"/>
<path d="M290.967 39.8002L290.343 39.2214C290.133 39.03 289.931 38.8303 289.711 38.6505C289.539 38.5099 289.514 38.2568 289.655 38.0853C289.796 37.9144 290.048 37.8889 290.22 38.0279L290.228 38.0345C290.458 38.2203 290.67 38.4259 290.889 38.6238L291.542 39.2224C291.708 39.3744 291.719 39.6319 291.566 39.7973C291.414 39.9628 291.156 39.9736 290.99 39.8215L290.988 39.82L290.967 39.8002Z" fill="white"/>
<path d="M288.362 37.6107L286.931 36.686L286.904 36.6687C286.722 36.5513 286.671 36.3096 286.788 36.1286C286.905 35.9483 287.146 35.8964 287.327 36.0119L288.819 36.9624C289.003 37.0802 289.058 37.3251 288.939 37.5094C288.821 37.6936 288.576 37.7477 288.391 37.6298L288.389 37.6285L288.362 37.6107Z" fill="white"/>
<path d="M285.428 35.8789L283.864 35.192L283.837 35.1801C283.645 35.0956 283.557 34.8717 283.642 34.6799C283.726 34.4891 283.949 34.402 284.141 34.4846L285.764 35.185C285.96 35.2694 286.05 35.4962 285.965 35.6914C285.881 35.8867 285.653 35.9765 285.458 35.8921L285.455 35.891L285.428 35.8789Z" fill="white"/>
<path d="M282.252 34.6246L280.599 34.1829L280.572 34.1756C280.379 34.1242 280.265 33.9267 280.316 33.7346C280.368 33.5439 280.563 33.4301 280.755 33.479L282.467 33.9163C282.666 33.967 282.785 34.1686 282.734 34.3665C282.684 34.5644 282.482 34.6838 282.283 34.6331C282.283 34.6329 282.282 34.6328 282.281 34.6326L282.252 34.6246Z" fill="white"/>
<path d="M278.917 33.8695L277.214 33.6869L277.187 33.6842C277 33.664 276.864 33.4959 276.884 33.3087C276.904 33.1228 277.07 32.9879 277.257 33.0058L279.015 33.1747C279.208 33.1932 279.35 33.3646 279.331 33.5573C279.312 33.7502 279.141 33.8913 278.947 33.8729C278.947 33.8727 278.946 33.8727 278.945 33.8727L278.917 33.8695Z" fill="white"/>
<path d="M275.502 33.638L273.793 33.7252L273.767 33.7266C273.589 33.7356 273.437 33.5993 273.428 33.4218C273.419 33.2456 273.554 33.0953 273.73 33.0843L275.491 32.9748C275.675 32.9634 275.832 33.1022 275.844 33.285C275.855 33.4677 275.716 33.6249 275.533 33.6363C275.532 33.6363 275.531 33.6364 275.531 33.6364L275.502 33.638Z" fill="white"/>
<path d="M272.096 33.9512L271.259 34.1281L270.84 34.2164C270.699 34.243 270.562 34.2846 270.423 34.3179L270.411 34.3208C270.248 34.36 270.084 34.2599 270.045 34.0974C270.006 33.9362 270.105 33.7739 270.265 33.7332C270.408 33.6973 270.548 33.6532 270.692 33.624L271.123 33.528L271.984 33.3364C272.153 33.2988 272.32 33.4049 272.358 33.5732C272.395 33.7415 272.289 33.9084 272.12 33.9459L272.117 33.9466L272.096 33.9512Z" fill="white"/>
<path d="M268.771 34.8053L267.129 35.3576L267.125 35.359C266.977 35.4091 266.815 35.3294 266.765 35.181C266.715 35.0338 266.794 34.8741 266.941 34.8229L268.588 34.2485C268.741 34.1951 268.908 34.2757 268.962 34.4285C269.016 34.5813 268.935 34.7485 268.782 34.8019C268.781 34.8021 268.78 34.8024 268.78 34.8025L268.771 34.8053Z" fill="white"/>
<path d="M265.482 35.92L263.809 36.4369C263.67 36.48 263.521 36.402 263.478 36.2628C263.435 36.1244 263.512 35.9776 263.65 35.9332L263.663 35.9289L265.306 35.4012L265.317 35.3978C265.461 35.3514 265.616 35.4305 265.662 35.5745C265.709 35.7186 265.629 35.8727 265.485 35.9191C265.484 35.9192 265.483 35.9199 265.482 35.92Z" fill="white"/>
<path d="M262.096 36.8472C261.519 36.9588 260.934 37.0413 260.344 37.0832C260.209 37.0929 260.092 36.9912 260.082 36.8563C260.073 36.7222 260.173 36.6058 260.307 36.5948C260.873 36.5482 261.437 36.4624 261.997 36.3478C262.135 36.3196 262.27 36.4082 262.298 36.5459C262.326 36.6837 262.237 36.8182 262.099 36.8464C262.099 36.8467 262.097 36.847 262.096 36.8472Z" fill="white"/>
<path d="M258.565 37.0709C257.969 37.0056 257.384 36.8659 256.823 36.6674C256.705 36.6258 256.643 36.4968 256.685 36.3793C256.726 36.2626 256.854 36.2013 256.972 36.2413C257.505 36.4232 258.057 36.5482 258.614 36.6029C258.743 36.6156 258.838 36.7306 258.825 36.8601C258.813 36.9894 258.697 37.084 258.568 37.0712C258.567 37.0711 258.565 37.0709 258.565 37.0709Z" fill="white"/>
<path d="M255.214 35.9021C254.707 35.5933 254.23 35.2333 253.798 34.8243C253.715 34.7459 253.712 34.6152 253.79 34.5324C253.868 34.4504 253.999 34.4466 254.082 34.5234C254.495 34.9063 254.952 35.2437 255.437 35.5319C255.54 35.5929 255.574 35.7255 255.513 35.828C255.452 35.9305 255.319 35.9643 255.216 35.9032C255.216 35.9032 255.214 35.9023 255.214 35.9021Z" fill="white"/>
<path d="M252.662 33.4494C252.345 32.9432 252.099 32.3865 251.966 31.7979C251.943 31.6971 252.007 31.5969 252.108 31.5742C252.208 31.5516 252.308 31.6143 252.332 31.7138C252.46 32.2535 252.693 32.7681 252.995 33.2392C253.054 33.3307 253.027 33.4525 252.935 33.511C252.844 33.5695 252.721 33.5428 252.663 33.4513C252.662 33.4511 252.662 33.4497 252.662 33.4494Z" fill="white"/>
<path d="M251.943 29.9896C252.003 29.6951 252.096 29.4078 252.215 29.1334C252.253 29.0459 252.355 29.0056 252.443 29.0435C252.53 29.0812 252.57 29.1819 252.533 29.269C252.426 29.5239 252.344 29.7887 252.292 30.059C252.273 30.1553 252.18 30.2182 252.083 30.1995C251.987 30.1809 251.924 30.0877 251.942 29.9914L251.943 29.9896Z" fill="white"/>
<path d="M254.628 18.83L251.282 25.0287L248.512 20.1028L254.628 18.83Z" fill="#7D97F4"/>
<path d="M228.605 0.259678L237.46 23.9588C237.629 24.4126 237.977 24.7779 238.422 24.9709C238.867 25.1639 239.372 25.1678 239.82 24.9817L263.339 15.2177C263.608 15.1059 263.783 14.8423 263.78 14.5515C263.777 14.2605 263.598 14.0004 263.326 13.8938L228.605 0.259678Z" fill="#91B3FA"/>
<path d="M254.626 18.8295L228.605 0.259678L250.836 20.4169L249.981 22.1754L254.626 18.8295Z" fill="#7D97F4"/>
<path d="M248.581 21.3414L251.282 25.0288L250.836 20.4171L248.581 21.3414Z" fill="#7D97F4"/>
<path d="M164.845 36.2599L156.285 117.35L172.556 119.058L181.116 37.9688C180.932 39.7044 164.662 37.9955 164.845 36.2599Z" fill="#91B3FA"/>
<path d="M160.357 117.777L167.803 118.559C170.428 118.835 172.725 117.456 172.934 115.479L181.08 38.3106C181.244 36.7562 182.64 35.6287 184.199 35.7924C184.672 35.8421 185.016 36.2653 184.966 36.7376L176.063 121.077C175.859 123.011 172.486 125.762 168.726 125.367L158.326 124.275C154.78 123.902 152.221 120.619 152.413 118.795L161.29 34.6997C161.366 33.9823 162.01 33.462 162.729 33.5376C164.042 33.6754 164.994 34.8488 164.856 36.1581L156.609 114.283C156.43 115.977 158.109 117.541 160.357 117.777Z" fill="url(#paint1_linear_117_2707)"/>
<path opacity="0.6" d="M169.455 116.805C169.443 116.805 169.431 116.804 169.419 116.803C169.228 116.783 169.09 116.613 169.11 116.423L177.136 40.3903C177.156 40.2005 177.327 40.0627 177.517 40.0828C177.707 40.1029 177.845 40.2729 177.825 40.4625L169.799 116.495C169.781 116.673 169.63 116.805 169.455 116.805Z" fill="white"/>
<path opacity="0.6" d="M167.04 116.551C167.028 116.551 167.016 116.55 167.003 116.549C166.813 116.529 166.675 116.359 166.695 116.169L174.721 40.1366C174.741 39.947 174.911 39.8102 175.102 39.8291C175.292 39.8492 175.43 40.0192 175.41 40.2088L167.384 116.242C167.365 116.419 167.215 116.551 167.04 116.551Z" fill="white"/>
<path opacity="0.6" d="M164.626 116.297C164.614 116.297 164.601 116.297 164.589 116.295C164.399 116.275 164.261 116.105 164.281 115.916L172.307 39.8829C172.327 39.6931 172.498 39.5552 172.688 39.5754C172.878 39.5955 173.016 39.7655 172.996 39.9551L164.97 115.988C164.951 116.165 164.801 116.297 164.626 116.297Z" fill="white"/>
<path opacity="0.6" d="M162.21 116.043C162.198 116.043 162.186 116.043 162.174 116.042C161.984 116.022 161.845 115.852 161.865 115.662L169.891 39.6292C169.911 39.4396 170.082 39.3029 170.272 39.3216C170.462 39.3417 170.6 39.5117 170.58 39.7014L162.554 115.734C162.536 115.912 162.385 116.043 162.21 116.043Z" fill="white"/>
<path opacity="0.6" d="M159.795 115.79C159.783 115.79 159.771 115.789 159.759 115.788C159.568 115.768 159.43 115.598 159.45 115.408L167.476 39.3755C167.496 39.1857 167.666 39.0479 167.857 39.0679C168.047 39.088 168.185 39.258 168.165 39.4476L160.139 115.48C160.12 115.658 159.97 115.79 159.795 115.79Z" fill="white"/>
<path d="M207.243 178.316L220.596 51.8272C221.007 47.9283 218.172 44.4346 214.263 44.0242L194.393 41.9371C190.484 41.5265 186.982 44.3545 186.57 48.2534L173.218 174.742C172.806 178.641 175.641 182.135 179.55 182.545L199.421 184.632C203.33 185.043 206.832 182.215 207.243 178.316Z" fill="url(#paint2_linear_117_2707)"/>
<path d="M214.122 75.7038L215.641 61.3097C215.703 60.7232 215.276 60.1975 214.688 60.1358L190.613 57.6071C190.025 57.5453 189.498 57.9708 189.436 58.5574L187.917 72.9515C187.855 73.538 188.282 74.0637 188.87 74.1254L212.945 76.6541C213.533 76.7159 214.06 76.2904 214.122 75.7038Z" fill="#7D97F4"/>
<path d="M213.189 84.5294L213.661 80.0594C213.711 79.5823 213.365 79.1548 212.886 79.1046L188.414 76.5341C187.936 76.4839 187.507 76.8298 187.457 77.3069L186.985 81.7769C186.934 82.254 187.281 82.6815 187.76 82.7317L212.232 85.3021C212.71 85.3524 213.139 85.0065 213.189 84.5294Z" fill="#7D97F4"/>
<path d="M144.079 87.8079C144.079 90.4131 143.793 92.9369 143.242 95.3791V95.3892C142.538 98.544 141.406 101.536 139.916 104.304C139.906 104.304 139.906 104.314 139.906 104.314C136.693 110.257 131.786 115.162 125.838 118.378C125.797 118.398 125.756 118.428 125.715 118.449C123.991 119.375 122.175 120.159 120.288 120.789C120.278 120.789 120.268 120.8 120.258 120.8C116.789 121.95 113.075 122.58 109.219 122.58C98.9764 122.58 89.7641 118.174 83.3879 111.152C77.7871 104.985 74.3594 96.8036 74.3594 87.8077C74.3594 86.2507 74.4613 84.7141 74.6551 83.2181C76.267 71.0268 84.2143 60.83 95.0793 56.0269C95.1915 55.9759 95.2936 55.9251 95.4057 55.8744C99.6293 54.0528 104.312 53.0352 109.219 53.0352C109.525 53.0352 109.821 53.0351 110.117 53.0451C110.229 53.0451 110.341 53.0451 110.443 53.0556C118.421 53.544 124.828 56.7088 127.072 57.9604C127.45 58.1742 127.705 58.3269 127.837 58.4082C127.868 58.4286 127.899 58.4489 127.929 58.4693H127.94C137.641 64.6465 144.079 75.4741 144.079 87.8079Z" fill="url(#paint3_linear_117_2707)"/>
<path d="M127.929 58.4694C112.809 59.6803 105.25 71.8107 105.25 71.8107C105.25 71.8107 104.893 72.7876 104.199 73.5916C104.189 73.5916 104.189 73.6018 104.179 73.6018C103.842 73.9985 103.403 74.3446 102.893 74.5073C102.893 74.5174 102.883 74.5174 102.883 74.5174C102.444 74.6601 101.955 74.6699 101.394 74.4563C99.7919 73.4589 98.5984 71.5255 97.7005 69.2869C95.4358 63.6593 95.0786 56.027 95.0786 56.027C95.1908 55.976 95.2929 55.9252 95.405 55.8745C100.485 53.4626 105.556 52.8013 110.116 53.0451C110.228 53.0451 110.341 53.0451 110.443 53.0555C118.42 53.544 124.827 56.7088 127.072 57.9604C127.449 58.1741 127.704 58.3269 127.837 58.4081C127.867 58.4287 127.898 58.4491 127.929 58.4694Z" fill="#91B3FA"/>
<path d="M96.4668 73.0523V78.6493C96.4157 78.6595 96.3649 78.6698 96.3138 78.6799C85.9485 80.654 83.6532 107.642 83.3879 111.153C77.7871 104.986 74.3594 96.8039 74.3594 87.8081C74.3594 86.2511 74.4613 84.7144 74.6551 83.2185C77.4811 72.1162 89.9579 72.3095 94.6609 72.8081C95.7833 72.9201 96.4668 73.0523 96.4668 73.0523Z" fill="#91B3FA"/>
<path d="M143.242 95.3793C143.252 95.3895 143.242 95.3895 143.242 95.3895C142.538 98.5442 141.405 101.536 139.916 104.304C139.906 104.304 139.906 104.314 139.906 104.314C136.366 109.097 131.061 115.04 125.837 118.378C125.796 118.398 125.756 118.429 125.715 118.449C123.868 119.619 122.032 120.454 120.288 120.79C120.278 120.79 120.267 120.8 120.257 120.8C120.237 120.8 120.206 120.81 120.186 120.81C113.004 119.64 104.118 90.4743 101.169 80.0841C100.516 77.8147 100.159 76.4411 100.159 76.4411C100.159 76.4411 100.159 76.4412 102.883 74.5177C103.261 74.2532 103.689 73.9479 104.179 73.6019C104.189 73.6019 104.189 73.5918 104.2 73.5918C104.761 73.673 105.322 73.7546 105.873 73.8359C132.366 77.9065 140.763 90.7693 143.242 95.3793Z" fill="#91B3FA"/>
<path d="M100.164 80.1756C103.333 80.1756 105.903 77.6128 105.903 74.4514C105.903 71.29 103.333 68.7272 100.164 68.7272C96.9948 68.7272 94.4255 71.29 94.4255 74.4514C94.4255 77.6128 96.9948 80.1756 100.164 80.1756Z" fill="url(#paint4_linear_117_2707)"/>
<path d="M174.164 62.4621C163.127 70.9987 147.802 71.3698 136.362 63.3777L135.051 62.4621C134.401 63.2403 121.864 76.2542 114.779 92.3037C114.388 93.191 114.469 94.2135 114.981 95.0375C116.218 97.028 118.804 100.653 122.003 102.124C123.179 102.665 124.571 102.362 125.431 101.397C127.797 98.745 133.014 92.7873 135.452 89.1391C135.452 89.1391 131.197 112.566 130.049 122.153C129.705 125.026 131.708 127.651 134.573 128.105C148.549 130.316 162.031 130.636 174.81 128.26C177.605 127.741 179.517 125.151 179.188 122.334C178.073 112.78 173.763 89.1391 173.763 89.1391C176.201 92.7873 181.418 98.745 183.784 101.397C184.644 102.362 186.037 102.665 187.213 102.124C190.412 100.653 192.998 97.028 194.234 95.0375C194.746 94.2135 194.828 93.1908 194.436 92.3037C187.352 76.2542 174.815 63.2403 174.164 62.4621Z" fill="#7D97F4"/>
<path d="M180.384 69.7296C177.005 65.481 174.449 62.8023 174.164 62.462C163.127 70.9986 147.802 71.3697 136.362 63.3776L135.051 62.462C134.793 62.7711 132.658 65.0127 129.735 68.607C135.735 73.0009 153.013 82.2659 180.384 69.7296Z" fill="url(#paint5_linear_117_2707)"/>
<path d="M178.705 118.662C178.158 114.807 177.377 109.971 176.597 105.335C158.446 108.2 143.766 107.67 132.528 105.904C131.75 110.545 130.98 115.334 130.452 119.09C142.312 121.236 158.384 122.067 178.705 118.662Z" fill="#7D97F4"/>
<path d="M174.684 94.2749C174.133 91.1674 173.763 89.1392 173.763 89.1392C174.639 90.4497 175.874 92.0582 177.206 93.7043C182.181 92.5337 187.429 91.029 192.948 89.131C191.042 85.2873 188.877 81.6648 186.709 78.4018C152.364 91.9095 130.388 84.0623 121.79 79.4949C119.528 82.9868 117.299 86.8539 115.398 90.9401C118.671 92.415 123.705 94.268 130.466 95.5812C132.353 93.3222 134.244 90.9472 135.453 89.1392C135.453 89.1392 134.926 92.0402 134.193 96.2183C144.411 97.7371 157.939 97.9061 174.684 94.2749Z" fill="url(#paint6_linear_117_2707)"/>
<path d="M134.729 65.1939C133.991 65.1939 133.312 64.708 133.102 63.9644C132.848 63.0674 133.372 62.1355 134.27 61.8826C134.958 61.6893 151.378 57.1854 175.138 60.5708C176.063 60.7026 176.705 61.5572 176.573 62.4796C176.441 63.4019 175.585 64.0422 174.659 63.9112C151.602 60.625 135.35 65.0847 135.189 65.13C135.035 65.1733 134.881 65.1939 134.729 65.1939Z" fill="url(#paint7_linear_117_2707)"/>
<path d="M152.399 62.6985C151.495 62.6985 150.745 61.9852 150.71 61.0762C150.709 61.044 150.586 57.8107 150.586 54.86C150.586 53.2048 151.936 51.7193 153.645 49.8386C157.139 45.9938 158.266 44.0802 156.204 42.1812C155.013 41.0846 153.873 40.6129 152.723 40.7404C150.468 40.9883 148.757 43.4185 148.74 43.4431C148.21 44.2069 147.158 44.4022 146.39 43.8764C145.622 43.3505 145.423 42.3071 145.947 41.5391C146.051 41.3876 148.523 37.8234 152.325 37.3895C154.488 37.144 156.564 37.9208 158.498 39.7019C163.357 44.1754 158.846 49.139 156.151 52.1049C155.329 53.01 154.09 54.3732 153.968 54.8932C153.969 57.7708 154.089 60.915 154.09 60.9466C154.126 61.8778 153.399 62.6615 152.465 62.6973C152.443 62.698 152.421 62.6985 152.399 62.6985Z" fill="url(#paint8_linear_117_2707)"/>
<path d="M202.411 96.239L196.912 190.609L231.648 186.801C233.249 186.627 234.48 185.364 234.539 183.758L237.743 96.239H202.411Z" fill="url(#paint9_linear_117_2707)"/>
<path d="M70.8589 102.354L74.8204 183.829C74.9586 186.686 77.3103 188.943 80.1776 188.981L196.907 190.534C198.359 190.553 199.724 189.991 200.757 188.974C201.791 187.957 202.338 186.569 202.338 185.121V96.089L70.8589 102.354Z" fill="url(#paint10_linear_117_2707)"/>
<path d="M246.692 111.514L239.822 96.239H202.28L216.203 117.616C216.878 118.655 218.088 119.182 219.32 119.031L244.123 115.989C245.145 115.864 246.047 115.291 246.553 114.398C247.06 113.504 247.111 112.452 246.692 111.514Z" fill="url(#paint11_linear_117_2707)"/>
<path d="M68.2153 96.239L58.0551 114.502C57.5048 115.495 57.5164 116.666 58.0856 117.649C58.6549 118.631 59.6986 119.226 60.8362 119.246L186.295 121.472C187.498 121.494 188.615 120.919 189.195 119.868L202.28 96.239H68.2153Z" fill="url(#paint12_linear_117_2707)"/>
<path opacity="0.37" d="M147.584 158.454C147.033 155.976 144.83 154.288 142.286 154.288H125.396C122.398 154.288 119.896 156.561 119.896 159.551V189.645L154.572 190.008L147.584 158.454Z" fill="white"/>
<path d="M135.079 165.417C135.023 164.557 134.307 163.963 133.443 163.963H132.545C132.096 163.963 131.667 164.071 131.358 164.395C131.048 164.719 130.885 165.118 130.907 165.565L132.093 189.632L136.653 189.692L135.079 165.417Z" fill="white"/>
<path d="M91.8372 134.707C93.0961 134.506 94.7371 134.393 96.4678 134.393C99.3452 134.393 101.211 134.909 102.672 136.008C104.246 137.174 105.235 139.035 105.235 141.703C105.235 144.596 104.178 146.592 102.717 147.825C101.121 149.148 98.6933 149.776 95.7261 149.776C93.9501 149.776 92.6912 149.664 91.8372 149.552V134.707ZM95.2765 147.04C95.5688 147.107 96.0408 147.107 96.468 147.107C99.5703 147.13 101.593 145.426 101.593 141.815C101.616 138.676 99.7726 137.017 96.8277 137.017C96.0634 137.017 95.5688 137.084 95.2765 137.151V147.04Z" fill="url(#paint13_linear_117_2707)"/>
<path d="M121.351 141.905C121.351 146.861 118.339 149.865 113.911 149.865C109.415 149.865 106.785 146.48 106.785 142.174C106.785 137.645 109.685 134.259 114.158 134.259C118.811 134.259 121.351 137.735 121.351 141.905ZM110.404 142.107C110.404 145.067 111.797 147.152 114.09 147.152C116.406 147.152 117.732 144.955 117.732 142.017C117.732 139.304 116.428 136.972 114.068 136.972C111.753 136.972 110.404 139.17 110.404 142.107Z" fill="url(#paint14_linear_117_2707)"/>
<path d="M123.598 149.619V134.506H127.599L130.746 140.044C131.646 141.636 132.545 143.52 133.219 145.224H133.287C133.062 143.228 132.994 141.188 132.994 138.923V134.506H136.141V149.619H132.545L129.308 143.789C128.408 142.174 127.419 140.223 126.677 138.452L126.61 138.474C126.7 140.47 126.745 142.6 126.745 145.067V149.619H123.598Z" fill="url(#paint15_linear_117_2707)"/>
<path d="M142.637 145.74L141.558 149.619H138.006L142.637 134.506H147.133L151.831 149.619H148.145L146.976 145.74H142.637ZM146.481 143.183L145.537 139.977C145.267 139.08 144.997 137.959 144.773 137.062H144.728C144.503 137.959 144.278 139.102 144.031 139.977L143.132 143.183H146.481Z" fill="url(#paint16_linear_117_2707)"/>
<path d="M154.91 137.376H150.841V134.505H162.485V137.376H158.349V149.619H154.91V137.376Z" fill="url(#paint17_linear_117_2707)"/>
<path d="M173.319 143.228H167.744V146.816H173.971V149.619H164.305V134.506H173.657V137.308H167.744V140.448H173.319V143.228Z" fill="url(#paint18_linear_117_2707)"/>
<path d="M50.2023 136.869C49.2422 137.891 47.8284 138.775 46.8335 139.326C48.3192 141.157 50.3296 142.992 52.9909 144.787L53.7526 146.492L56.193 143.575C56.193 143.575 51.8141 141.401 50.2023 136.869Z" fill="url(#paint19_linear_117_2707)"/>
<path d="M63.2622 192.206C63.263 192.154 63.2596 192.101 63.2462 192.048C62.4557 188.922 58.5324 186.975 58.5324 186.975L56.9778 187.096C56.0838 189.852 56.1988 191.542 56.3423 192.294C56.3463 192.315 56.3528 192.335 56.3583 192.356C57.6406 192.47 60.2802 192.545 63.2622 192.206Z" fill="url(#paint20_linear_117_2707)"/>
<path d="M56.3586 192.356C56.4279 192.607 56.6139 192.803 56.852 192.852C58.6764 193.235 61.5758 192.927 62.7932 192.768C63.0618 192.733 63.2581 192.486 63.2625 192.206C60.2807 192.545 57.6411 192.47 56.3586 192.356Z" fill="url(#paint21_linear_117_2707)"/>
<path d="M56.353 184.787L57.0114 187.949C57.0598 188.18 57.2382 188.354 57.4543 188.374C57.7189 188.399 58.0956 188.413 58.4745 188.358C58.8141 188.308 59.0507 187.964 58.9905 187.594L58.5328 184.787H56.353Z" fill="url(#paint22_linear_117_2707)"/>
<path d="M69.9959 192.324C68.2789 192.276 67.3908 192.074 66.9318 191.887C66.9307 192.057 66.9316 192.231 66.9372 192.41C66.943 192.602 67.0854 192.755 67.2606 192.754L76.688 192.693C76.9888 192.691 77.1646 192.343 77.0344 192.068C75.7984 192.17 72.6502 192.398 69.9959 192.324Z" fill="url(#paint23_linear_117_2707)"/>
<path d="M77.0341 192.068C77.0227 192.044 77.0129 192.02 76.9967 191.997C76.1642 190.837 74.0437 188.526 69.8535 187.524L67.8433 187.461C67.8433 187.461 66.9483 189.012 66.9314 191.887C67.3904 192.074 68.2785 192.276 69.9956 192.324C72.6498 192.398 75.798 192.17 77.0341 192.068Z" fill="url(#paint24_linear_117_2707)"/>
<path d="M67.4705 184.422C67.4928 184.571 67.7683 186.843 67.875 187.724C67.9003 187.933 68.0523 188.095 68.2438 188.118C68.5862 188.158 69.1401 188.196 69.6245 188.096C69.8859 188.043 70.0751 187.793 70.0751 187.501V183.936L67.4705 184.422Z" fill="url(#paint25_linear_117_2707)"/>
<path d="M65.858 142.967C65.858 142.967 70.7063 161.346 70.6186 184.474C70.6169 184.896 70.3202 185.26 69.9064 185.347C69.2968 185.475 68.4008 185.627 67.6589 185.606C67.263 185.595 66.9319 185.302 66.8652 184.913C66.1854 180.936 62.2841 158.534 60.0614 154.896C60.0614 154.896 58.599 174.849 59.0665 185.201C59.078 185.458 58.8892 185.681 58.6325 185.711C58.2432 185.756 57.6207 185.79 56.8282 185.706C56.5274 185.674 56.2847 185.447 56.2417 185.149C55.7574 181.783 52.9705 161.75 53.0889 147.319C53.0956 146.505 55.2465 142.967 55.2465 142.967L65.858 142.967Z" fill="url(#paint26_linear_117_2707)"/>
<path d="M72.601 120.724C71.8141 119.74 71.1248 118.685 70.5483 117.598C69.7428 116.081 70.4834 118.581 70.2635 116.867C64.2327 112.526 55.1515 114.723 51.6388 115.165C50.487 115.309 49.4336 115.876 48.6747 116.752C45.6646 120.226 39.0595 129.739 46.8339 139.325C47.8288 138.774 49.2426 137.891 50.2027 136.869C49.3426 134.45 49.2721 131.359 51.0748 127.569C51.1363 127.87 51.2125 128.167 51.3051 128.46C53.7895 136.311 53.922 142.844 53.9165 144.35C53.9157 144.555 54.0387 144.739 54.2291 144.815C57.499 146.122 63.7932 145.344 65.9061 145.03C66.2935 144.972 66.5541 144.613 66.5006 144.226C65.4636 136.732 70.7855 124.404 72.1911 121.316C72.2921 121.094 72.4319 120.894 72.601 120.724Z" fill="url(#paint27_linear_117_2707)"/>
<path d="M57.2904 108.854L56.6602 115.277C56.6602 115.277 60.2822 116.365 62.9166 114.511L61.0647 108.674L57.2904 108.854Z" fill="url(#paint28_linear_117_2707)"/>
<path d="M61.4938 101.534C61.5811 101.616 65.1728 108.652 65.1728 108.652L61.1017 110.613L56.7041 104.449C56.7041 104.449 60.0344 100.164 61.4938 101.534Z" fill="url(#paint29_linear_117_2707)"/>
<path d="M58.5043 104.619C58.4317 104.807 58.4495 105.016 58.5533 105.188L60.5837 108.564C60.6147 108.616 60.6512 108.662 60.695 108.703C60.9367 108.927 61.7637 109.58 62.403 108.691C62.9479 107.934 63.4592 107.245 64.007 106.961C64.3269 106.795 64.7207 106.928 64.8831 107.249C65.2176 107.91 65.8656 109.258 66.2727 110.537C66.3748 110.857 66.209 111.201 65.8965 111.327C65.0721 111.661 63.4429 112.263 61.9971 112.462C61.7595 112.495 61.5245 112.395 61.3832 112.202C60.7612 111.352 59.008 108.976 58.4097 108.382C57.8538 107.829 56.8278 108.038 56.3655 108.17C56.19 108.221 56.0031 108.196 55.8467 108.102C55.3777 107.821 54.559 107.119 55.3079 105.931C55.494 105.635 55.3992 105.242 55.1069 105.05C54.5832 104.706 54.015 104.061 54.5564 103.017C55.1044 101.959 56.0832 101.865 56.7497 101.946C57.0447 101.982 57.3441 101.827 57.4572 101.553C57.5076 101.432 57.607 101.328 57.7924 101.29C58.1416 101.22 58.371 100.901 58.3025 100.552C58.1849 99.9535 58.2734 99.1762 59.2312 98.6508C60.9878 97.6874 62.5265 99.2572 62.9176 100.582C63.3089 101.907 61.345 102.844 60.1095 103C59.2021 103.115 58.7046 104.103 58.5043 104.619Z" fill="url(#paint30_linear_117_2707)"/>
<path d="M59.1731 109.622C59.1731 109.622 58.392 107.342 57.3921 107.426C56.3923 107.509 55.6054 108.503 56.8444 109.62C58.3858 111.009 59.1731 109.622 59.1731 109.622Z" fill="url(#paint31_linear_117_2707)"/>
<path d="M50.7449 126.982C49.427 123.385 49.9051 119.041 49.91 118.997L50.2732 119.038C50.2684 119.081 49.8004 123.342 51.0883 126.857L50.7449 126.982Z" fill="url(#paint32_linear_117_2707)"/>
<path d="M59.8829 154.428C59.8016 154.428 59.7274 154.374 59.7061 154.292C59.304 152.745 56.2935 151.045 56.2631 151.028C56.1751 150.979 56.1437 150.868 56.1931 150.78C56.2425 150.692 56.3533 150.661 56.442 150.71C56.5715 150.782 59.619 152.503 60.06 154.2C60.0853 154.298 60.0266 154.397 59.9289 154.422C59.9135 154.426 59.8979 154.428 59.8829 154.428Z" fill="url(#paint33_linear_117_2707)"/>
<path d="M84.8427 122.743C78.0218 123.764 73.5762 119.471 70.2634 116.867C65.8897 113.429 62.4861 115.102 62.4861 115.102L67.1504 123.981C74.1161 130.532 81.2578 129.078 85.7602 126.955C85.8296 125.239 85.3701 123.804 84.8427 122.743Z" fill="url(#paint34_linear_117_2707)"/>
<path d="M94.4293 118.684L92.1673 119.898C89.4545 121.546 87.0271 122.417 84.8425 122.743C85.3699 123.804 85.8294 125.24 85.76 126.955C88.6262 125.603 90.423 123.981 90.423 123.981C95.5473 120.934 94.4293 118.684 94.4293 118.684Z" fill="url(#paint35_linear_117_2707)"/>
<path d="M101.093 121.864C100.947 121.38 100.588 120.988 100.118 120.799L95.5269 118.958C95.5269 118.958 95.4576 118.371 96.4969 117.971C97.5361 117.572 97.2932 116.411 97.2932 116.411C97.2932 116.411 95.8734 117.057 93.7948 118.082C92.6062 118.668 91.9392 119.703 91.5854 120.481L92.7672 122.032C95.5965 122.88 98.4595 123.042 101.347 122.705L101.093 121.864Z" fill="url(#paint36_linear_117_2707)"/>
<path d="M44.5581 129.946C44.5581 129.946 40.4421 139.421 37.9093 138.157C35.3764 136.894 33.4768 126.472 33.4768 126.472C33.4768 126.472 41.3921 124.577 44.5581 129.946Z" fill="url(#paint37_linear_117_2707)"/>
<path d="M30.2271 188.741C30.2271 188.741 29.883 190.684 29.7143 192.607C29.6484 193.359 30.2294 194.012 30.9853 194.043C33.5531 194.15 39.0458 194.358 41.0169 194.27C41.313 194.256 41.5069 193.954 41.3972 193.679C41.3053 193.449 41.1282 193.262 40.9023 193.159L31.8293 188.999L30.2271 188.741Z" fill="url(#paint38_linear_117_2707)"/>
<path d="M29.9456 187.6L30.222 189.924C30.222 189.924 31.8113 190.662 32.8967 189.831L32.2385 187.241L29.9456 187.6Z" fill="url(#paint39_linear_117_2707)"/>
<path d="M30.1538 143.904C30.0343 144.511 29.5128 174.192 32.6935 187.493C32.7454 187.71 32.6352 187.934 32.4279 188.018C31.9401 188.217 30.9838 188.505 29.8376 188.544C29.4826 188.556 29.1644 188.325 29.0644 187.985C28.1552 184.899 23.7986 169.437 23.2302 154.667C22.5952 138.163 23.2302 154.105 23.2302 154.105L23.6026 143.903L30.1538 143.904Z" fill="url(#paint40_linear_117_2707)"/>
<path d="M19.7907 189.755C19.7907 189.755 19.2429 190.736 18.7126 193.342C18.6169 193.813 18.9466 194.264 19.4258 194.311C20.2737 194.394 21.5791 194.501 22.6247 194.493C23.1067 194.49 23.4829 194.072 23.4249 193.594C23.3091 192.643 22.9483 191.082 21.8336 189.865L19.7907 189.755Z" fill="url(#paint41_linear_117_2707)"/>
<path d="M19.3088 186.765L19.9548 190.28C19.9548 190.28 20.5935 190.754 21.857 190.411L21.5487 186.629L19.3088 186.765Z" fill="url(#paint42_linear_117_2707)"/>
<path d="M17.5647 144.815C14.9633 160.475 18.1289 183.52 19.1966 188.03C19.262 188.306 19.4854 188.518 19.766 188.564C20.2426 188.643 21.0271 188.707 21.8007 188.483C22.0671 188.406 22.2545 188.166 22.2652 187.89C22.4084 184.243 22.1506 161.857 24.5745 153.01C24.6973 152.561 24.9718 152.17 25.3516 151.901L30.0561 148.565L30.4168 143.172L17.5647 144.815Z" fill="url(#paint43_linear_117_2707)"/>
<path d="M34.4264 115.734C24.928 114.786 17.7426 117.184 17.7426 117.184C15.4188 130.709 17.3362 146.309 17.3362 146.309C23.3713 147.888 30.1795 145.344 30.1795 145.344C31.1825 139.691 35.8628 123.781 35.8628 123.781C39.6717 123.31 36.8192 115.973 34.4264 115.734Z" fill="url(#paint44_linear_117_2707)"/>
<path d="M20.7327 124.714L17.7426 117.184C17.7426 117.184 10.4609 122.119 9.26343 128.377C10.6393 128.478 13.1429 128.835 15.5934 130.069C16.1321 127.115 20.7327 124.714 20.7327 124.714Z" fill="url(#paint45_linear_117_2707)"/>
<path d="M27.7296 131.799C27.7296 131.799 19.5542 136.408 16.7957 132.473C16.2231 131.655 15.5145 130.57 15.6556 129.796C13.2051 128.561 10.7233 128.088 9.34736 127.987C8.98637 129.873 9.72697 132.269 10.8383 134.297C15.6701 143.114 28.8116 133.81 28.8116 133.81L27.7296 131.799Z" fill="url(#paint46_linear_117_2707)"/>
<path d="M26.7471 137.63L31.2091 122.087C31.2597 121.911 31.4106 121.782 31.5933 121.761C32.4018 121.667 34.7441 121.402 37.4487 121.174C40.7065 120.899 44.4897 120.676 46.7505 120.866C47.0719 120.893 47.266 121.232 47.1232 121.52C45.8376 124.115 40.5493 134.668 37.9013 138.125C37.8135 138.24 37.6779 138.307 37.5335 138.306L27.1813 138.209C26.88 138.207 26.6642 137.919 26.7471 137.63Z" fill="url(#paint47_linear_117_2707)"/>
<path d="M37.912 119.827L41.1469 119.289C41.3192 119.261 41.4603 119.425 41.4055 119.59L41.0853 120.558C41.0575 120.642 40.9837 120.703 40.8955 120.715L37.7826 121.13C37.6216 121.151 37.4887 121.005 37.5258 120.847L37.7241 120.002C37.7455 119.911 37.8195 119.842 37.912 119.827Z" fill="url(#paint48_linear_117_2707)"/>
<path d="M35.489 122.558L35.7555 121.174C35.7823 121.035 35.8971 120.93 36.0383 120.916L42.5719 120.254C42.7919 120.232 42.968 120.433 42.9165 120.648L42.501 122.373C42.4677 122.511 42.3472 122.611 42.2051 122.618L35.8203 122.938C35.6125 122.949 35.4498 122.762 35.489 122.558Z" fill="url(#paint49_linear_117_2707)"/>
<path d="M27.8259 133.875C27.8259 133.875 27.2044 131.325 27.4551 130.421C27.7058 129.516 28.1915 128.354 29.8106 128.612C31.4298 128.87 33.3399 129.551 33.3399 129.551C33.3399 129.551 33.2433 130.729 32.0127 130.349L32.7758 130.938C32.7758 130.938 32.6667 131.881 31.6273 131.377L32.3371 132.158C32.3371 132.158 31.8907 132.933 31.126 132.436C30.3613 131.939 29.9946 134.182 27.8259 133.875Z" fill="url(#paint50_linear_117_2707)"/>
<path d="M44.4154 130.082C44.4154 130.082 46.2996 128.251 46.5689 127.352C46.8381 126.453 47.0458 125.21 45.5364 124.571C44.027 123.932 42.0464 123.497 42.0464 123.497C42.0464 123.497 41.5009 124.546 42.7458 124.876L41.7857 124.971C41.7857 124.971 41.3757 125.828 42.5247 125.951L41.5075 126.237C41.5075 126.237 41.473 127.13 42.3856 127.114C43.2981 127.098 42.4145 129.193 44.4154 130.082Z" fill="url(#paint51_linear_117_2707)"/>
<path d="M27.1939 109.418L24.7134 116.573C24.6723 116.692 24.7211 116.823 24.8312 116.884C25.5075 117.256 27.9434 118.334 30.879 116.478C31.1849 116.284 31.393 115.969 31.4395 115.611L32.2428 109.418L27.1939 109.418Z" fill="url(#paint52_linear_117_2707)"/>
<path d="M32.5903 102.791C32.5903 102.791 35.3141 107.906 34.9649 109.972C34.6158 112.038 31.2399 111.89 28.2923 110.211L26.2324 104.689L32.5903 102.791Z" fill="url(#paint53_linear_117_2707)"/>
<path d="M28.4222 107.5C28.542 107.447 28.5862 107.3 28.5144 107.191C28.2961 106.859 27.8871 106.18 27.7566 105.586C27.7566 105.586 27.2669 105.273 29.0029 104.859C30.7388 104.444 33.3276 103.801 33.8717 102.327C34.4021 100.89 33.0084 97.2764 30.7844 100.156C30.6999 100.265 30.5341 100.268 30.4496 100.158C30.0851 99.6849 29.1265 98.7024 27.796 99.2979C26.5506 99.8553 26.4105 100.765 26.4276 101.224C26.4327 101.359 26.3117 101.464 26.1787 101.439C25.5491 101.319 24.0383 101.216 23.3331 102.762C22.7523 104.036 23.1298 104.756 23.4737 105.109C23.5851 105.223 23.5363 105.411 23.3836 105.458C22.9698 105.584 22.4355 105.934 22.4891 106.901C22.563 108.238 24.0614 108.12 24.488 108.059C24.5579 108.049 24.6284 108.073 24.6756 108.125C25.0414 108.529 26.6895 110.244 28.4732 110.45C28.6276 110.468 28.7473 110.316 28.6967 110.17L27.9247 107.931C27.8888 107.827 27.9387 107.713 28.0395 107.669L28.4222 107.5Z" fill="url(#paint54_linear_117_2707)"/>
<path d="M28.7329 107.817C28.7329 107.817 26.7936 106.49 26.6518 107.608C26.5101 108.725 28.3983 109.227 29.3335 108.81L28.7329 107.817Z" fill="url(#paint55_linear_117_2707)"/>
<path d="M270.519 95.4474C275.23 95.4474 279.049 91.6378 279.049 86.9385C279.049 82.2391 275.23 78.4296 270.519 78.4296C265.807 78.4296 261.988 82.2391 261.988 86.9385C261.988 91.6378 265.807 95.4474 270.519 95.4474Z" fill="url(#paint56_linear_117_2707)"/>
<path d="M270.519 95.1646C275.073 95.1646 278.766 91.4816 278.766 86.9385C278.766 82.3954 275.073 78.7124 270.519 78.7124C265.964 78.7124 262.272 82.3954 262.272 86.9385C262.272 91.4816 265.964 95.1646 270.519 95.1646Z" fill="url(#paint57_linear_117_2707)"/>
<path opacity="0.71" d="M263.719 83.8668C263.666 83.8668 263.613 83.855 263.563 83.8297C263.392 83.7438 263.324 83.5359 263.41 83.3655C264.773 80.6723 267.497 78.9993 270.52 78.9993C271.002 78.9993 271.485 79.0426 271.955 79.128C272.143 79.1622 272.268 79.3422 272.234 79.5298C272.199 79.7178 272.018 79.8411 271.831 79.8079C271.402 79.7298 270.961 79.6903 270.52 79.6903C267.76 79.6903 265.273 81.2179 264.029 83.6769C263.968 83.7976 263.846 83.8668 263.719 83.8668Z" fill="white"/>
<path opacity="0.71" d="M277.594 88.2282C278.2 84.4311 275.606 80.8623 271.8 80.2571C267.993 79.6518 264.415 82.2394 263.809 86.0365C263.202 89.8336 265.796 93.4024 269.602 94.0076C273.409 94.6129 276.987 92.0253 277.594 88.2282Z" fill="white"/>
<path d="M270.013 92.2937V91.5362C269.222 91.5045 268.439 91.3181 267.883 91.0753C267.684 90.9886 267.583 90.7664 267.64 90.5577L267.833 89.8521C267.904 89.5933 268.186 89.4595 268.434 89.5632C268.985 89.7939 269.666 89.9764 270.401 89.9764C271.164 89.9764 271.732 89.7185 271.732 89.19C271.732 88.7131 271.293 88.4295 270.233 88.146C268.721 87.7334 267.636 87.076 267.636 85.7482C267.636 84.5494 268.514 83.6341 270.039 83.3893V82.6318C270.039 82.3882 270.237 82.1905 270.482 82.1905H270.928C271.172 82.1905 271.37 82.3882 271.37 82.6318V83.3119C272.103 83.3413 272.636 83.4661 273.059 83.6144C273.276 83.6905 273.394 83.9234 273.334 84.1447L273.157 84.7973C273.089 85.049 272.819 85.1867 272.574 85.0946C272.185 84.9476 271.634 84.7945 270.918 84.7945C270.013 84.7945 269.755 85.1684 269.755 85.5035C269.755 85.9159 270.298 86.1995 271.474 86.5605C273.154 87.0633 273.852 87.7593 273.852 89.0097C273.852 90.1571 272.999 91.1884 271.345 91.4462V92.294C271.345 92.5378 271.146 92.7353 270.902 92.7353H270.456C270.211 92.735 270.013 92.5373 270.013 92.2937Z" fill="url(#paint58_linear_117_2707)"/>
<path d="M249.347 112.162C256.142 112.162 261.65 106.668 261.65 99.8899C261.65 93.1121 256.142 87.6177 249.347 87.6177C242.552 87.6177 237.044 93.1121 237.044 99.8899C237.044 106.668 242.552 112.162 249.347 112.162Z" fill="url(#paint59_linear_117_2707)"/>
<path d="M249.347 111.754C255.916 111.754 261.241 106.442 261.241 99.89C261.241 93.3376 255.916 88.0259 249.347 88.0259C242.779 88.0259 237.454 93.3376 237.454 99.89C237.454 106.442 242.779 111.754 249.347 111.754Z" fill="url(#paint60_linear_117_2707)"/>
<path opacity="0.71" d="M239.539 95.3071C239.486 95.3071 239.433 95.2953 239.383 95.27C239.212 95.1841 239.144 94.9762 239.23 94.8058C241.169 90.9732 245.046 88.5923 249.347 88.5923C250.032 88.5923 250.72 88.6541 251.39 88.7757C251.578 88.8099 251.703 88.9898 251.668 89.1775C251.634 89.3653 251.454 89.4893 251.265 89.4556C250.637 89.3412 249.991 89.2833 249.347 89.2833C245.309 89.2833 241.669 91.5186 239.849 95.1172C239.787 95.2379 239.666 95.3071 239.539 95.3071Z" fill="white"/>
<path opacity="0.71" d="M259.395 102.495C260.7 97.1043 257.376 91.6788 251.972 90.3772C246.567 89.0756 241.128 92.3908 239.823 97.7819C238.518 103.173 241.842 108.598 247.246 109.9C252.651 111.202 258.09 107.886 259.395 102.495Z" fill="white"/>
<path d="M248.618 107.613V106.521C247.476 106.475 246.347 106.207 245.545 105.856C245.258 105.731 245.112 105.41 245.194 105.11L245.473 104.092C245.575 103.719 245.982 103.526 246.34 103.675C247.135 104.008 248.118 104.271 249.177 104.271C250.277 104.271 251.097 103.899 251.097 103.137C251.097 102.449 250.463 102.04 248.935 101.631C246.754 101.036 245.188 100.088 245.188 98.1731C245.188 96.444 246.456 95.124 248.655 94.7708V93.6783C248.655 93.3268 248.941 93.0418 249.293 93.0418H249.937C250.289 93.0418 250.575 93.3268 250.575 93.6783V94.6592C251.631 94.7014 252.4 94.8815 253.011 95.0955C253.323 95.2051 253.494 95.5411 253.408 95.8601L253.152 96.8013C253.053 97.1641 252.664 97.363 252.312 97.23C251.75 97.0181 250.955 96.7973 249.923 96.7973C248.618 96.7973 248.245 97.3364 248.245 97.8198C248.245 98.4148 249.028 98.8238 250.724 99.3445C253.147 100.07 254.154 101.073 254.154 102.877C254.154 104.532 252.923 106.019 250.538 106.391V107.614C250.538 107.965 250.252 108.25 249.9 108.25H249.256C248.903 108.25 248.618 107.965 248.618 107.613Z" fill="url(#paint61_linear_117_2707)"/>
<path d="M272.191 127.807C278.374 127.807 283.387 122.807 283.387 116.639C283.387 110.472 278.374 105.472 272.191 105.472C266.008 105.472 260.995 110.472 260.995 116.639C260.995 122.807 266.008 127.807 272.191 127.807Z" fill="url(#paint62_linear_117_2707)"/>
<path d="M272.191 127.436C278.168 127.436 283.014 122.602 283.014 116.639C283.014 110.677 278.168 105.843 272.191 105.843C266.213 105.843 261.367 110.677 261.367 116.639C261.367 122.602 266.213 127.436 272.191 127.436Z" fill="url(#paint63_linear_117_2707)"/>
<path opacity="0.71" d="M263.266 112.5C263.214 112.5 263.16 112.488 263.11 112.463C262.939 112.377 262.871 112.169 262.957 111.999C264.727 108.501 268.266 106.328 272.191 106.328C272.818 106.328 273.445 106.384 274.056 106.495C274.244 106.529 274.369 106.709 274.334 106.897C274.3 107.085 274.12 107.209 273.932 107.175C273.362 107.071 272.776 107.019 272.191 107.019C268.529 107.019 265.227 109.046 263.576 112.31C263.515 112.431 263.393 112.5 263.266 112.5Z" fill="white"/>
<path opacity="0.71" d="M278.902 123.337C282.479 119.768 282.479 113.983 278.902 110.414C275.325 106.846 269.524 106.846 265.947 110.414C262.37 113.983 262.37 119.768 265.947 123.337C269.524 126.905 275.325 126.905 278.902 123.337Z" fill="white"/>
<path d="M271.528 123.668V122.674C270.489 122.632 269.461 122.388 268.731 122.069C268.471 121.955 268.338 121.663 268.413 121.39L268.666 120.464C268.759 120.124 269.129 119.948 269.455 120.084C270.179 120.387 271.073 120.627 272.037 120.627C273.037 120.627 273.784 120.288 273.784 119.595C273.784 118.969 273.207 118.596 271.816 118.224C269.832 117.683 268.407 116.82 268.407 115.077C268.407 113.504 269.561 112.303 271.562 111.981V110.987C271.562 110.667 271.822 110.408 272.143 110.408H272.728C273.049 110.408 273.309 110.667 273.309 110.987V111.879C274.27 111.918 274.97 112.082 275.526 112.277C275.81 112.376 275.966 112.682 275.887 112.972L275.654 113.829C275.564 114.159 275.21 114.34 274.889 114.219C274.378 114.026 273.655 113.825 272.716 113.825C271.528 113.825 271.189 114.316 271.189 114.756C271.189 115.297 271.901 115.669 273.445 116.143C275.65 116.803 276.566 117.717 276.566 119.358C276.566 120.863 275.446 122.217 273.275 122.555V123.668C273.275 123.988 273.015 124.247 272.695 124.247H272.109C271.788 124.247 271.528 123.988 271.528 123.668Z" fill="url(#paint64_linear_117_2707)"/>
<path d="M288.317 140.662H246.057C242.804 140.662 240.168 143.292 240.168 146.536V183.508C240.168 186.752 242.804 189.382 246.057 189.382H288.317C291.569 189.382 294.205 186.752 294.205 183.508V146.536C294.205 143.292 291.569 140.662 288.317 140.662Z" fill="url(#paint65_linear_117_2707)"/>
<path d="M290.049 137.207H245.018V141.008H290.049V137.207Z" fill="url(#paint66_linear_117_2707)"/>
<path d="M289.464 131.679H244.909C243.821 131.679 242.939 132.558 242.939 133.644V136.624C242.939 137.709 243.821 138.589 244.909 138.589H289.464C290.552 138.589 291.434 137.71 291.434 136.624V133.644C291.434 132.558 290.552 131.679 289.464 131.679Z" fill="url(#paint67_linear_117_2707)"/>
<path d="M245.291 137.875C245.291 137.971 245.213 138.048 245.118 138.048C245.022 138.048 244.944 137.971 244.944 137.875V132.693C244.944 132.597 245.022 132.52 245.118 132.52C245.213 132.52 245.291 132.597 245.291 132.693V137.875Z" fill="#BDD0FB"/>
<path d="M246.677 137.875C246.677 137.971 246.599 138.048 246.504 138.048C246.408 138.048 246.33 137.971 246.33 137.875V132.693C246.33 132.597 246.408 132.52 246.504 132.52C246.599 132.52 246.677 132.597 246.677 132.693V137.875Z" fill="#BDD0FB"/>
<path d="M248.061 137.875C248.061 137.971 247.984 138.048 247.888 138.048C247.793 138.048 247.715 137.971 247.715 137.875V132.693C247.715 132.597 247.793 132.52 247.888 132.52C247.984 132.52 248.061 132.597 248.061 132.693V137.875Z" fill="#BDD0FB"/>
<path d="M249.448 137.875C249.448 137.971 249.37 138.048 249.275 138.048C249.179 138.048 249.101 137.971 249.101 137.875V132.693C249.101 132.597 249.179 132.52 249.275 132.52C249.37 132.52 249.448 132.597 249.448 132.693V137.875Z" fill="#BDD0FB"/>
<path d="M287.205 156.253C287.205 155.168 286.323 154.288 285.235 154.288H248.646C247.558 154.288 246.676 155.168 246.676 156.253V172.364C246.676 173.449 247.558 174.329 248.646 174.329H285.235C286.323 174.329 287.205 173.449 287.205 172.364V156.253Z" fill="url(#paint68_linear_117_2707)"/>
<path d="M249.521 186.422H245.999C243.93 186.422 242.173 184.593 242.173 182.529V171.069C242.173 170.973 242.251 170.896 242.347 170.896C242.442 170.896 242.52 170.973 242.52 171.069V182.529C242.52 184.402 244.121 186.077 245.999 186.077H249.521C249.616 186.077 249.694 186.154 249.694 186.249C249.694 186.345 249.616 186.422 249.521 186.422Z" fill="#BDD0FB"/>
<path d="M267.242 162.378C267.242 162.378 267.64 156.989 273.025 157.88C278.127 158.724 276.493 165.686 269.305 170.117C268.526 170.597 267.561 170.668 266.718 170.31C263.562 168.972 256.211 165.138 260.266 159.815C262.884 156.377 267.242 162.378 267.242 162.378Z" fill="url(#paint69_linear_117_2707)"/>
<path d="M298.155 96.8917C307.571 96.8917 315.205 89.2773 315.205 79.8845C315.205 70.4916 307.571 62.8773 298.155 62.8773C288.739 62.8773 281.105 70.4916 281.105 79.8845C281.105 89.2773 288.739 96.8917 298.155 96.8917Z" fill="url(#paint70_linear_117_2707)"/>
<path d="M298.156 96.3262C307.259 96.3262 314.638 88.965 314.638 79.8845C314.638 70.804 307.259 63.4428 298.156 63.4428C289.052 63.4428 281.673 70.804 281.673 79.8845C281.673 88.965 289.052 96.3262 298.156 96.3262Z" fill="url(#paint71_linear_117_2707)"/>
<path opacity="0.71" d="M284.563 73.4003C284.51 73.4003 284.457 73.3884 284.407 73.3631C284.236 73.2773 284.168 73.0693 284.254 72.8989C286.919 67.6329 292.245 64.3616 298.155 64.3616C299.097 64.3616 300.042 64.4463 300.962 64.6134C301.15 64.6476 301.275 64.8275 301.241 65.0153C301.206 65.2032 301.026 65.3262 300.838 65.2933C299.959 65.1336 299.056 65.0526 298.155 65.0526C292.508 65.0526 287.419 68.1783 284.872 73.2103C284.811 73.3309 284.689 73.4003 284.563 73.4003Z" fill="white"/>
<path opacity="0.71" d="M312.141 83.238C313.794 75.7315 309.033 68.3099 301.508 66.6614C293.983 65.0128 286.543 69.7616 284.89 77.2681C283.237 84.7745 287.998 92.1961 295.523 93.8447C303.048 95.4932 310.489 90.7444 312.141 83.238Z" fill="white"/>
<path d="M297.145 90.588V89.074C295.563 89.0109 293.998 88.6383 292.886 88.1529C292.49 87.9796 292.287 87.5353 292.401 87.1183L292.787 85.708C292.928 85.1907 293.492 84.9231 293.988 85.1304C295.091 85.5915 296.452 85.9562 297.92 85.9562C299.444 85.9562 300.58 85.4407 300.58 84.3844C300.58 83.4311 299.702 82.8644 297.584 82.2976C294.562 81.4732 292.392 80.159 292.392 77.5052C292.392 75.1089 294.149 73.2796 297.197 72.7901V71.2759C297.197 70.7887 297.593 70.3937 298.081 70.3937H298.973C299.461 70.3937 299.857 70.7887 299.857 71.2759V72.6353C301.321 72.6937 302.387 72.9435 303.233 73.24C303.666 73.3919 303.903 73.8575 303.783 74.2997L303.428 75.604C303.291 76.1069 302.752 76.3824 302.264 76.1981C301.485 75.9044 300.384 75.5985 298.953 75.5985C297.145 75.5985 296.628 76.3457 296.628 77.0156C296.628 77.8401 297.713 78.4068 300.064 79.1284C303.422 80.1332 304.816 81.5244 304.816 84.0237C304.816 86.3167 303.112 88.378 299.806 88.8934V90.5877C299.806 91.0749 299.41 91.4699 298.921 91.4699H298.029C297.541 91.4702 297.145 91.0752 297.145 90.588Z" fill="url(#paint72_linear_117_2707)"/>
<path d="M307.93 95.6874L310.389 94.3391C311.428 93.7692 312.176 92.7868 312.448 91.6354L313.069 89.0043C313.087 88.9253 313.053 88.8435 312.983 88.8019C312.913 88.7604 312.824 88.7689 312.763 88.8228L306.817 94.102C306.817 94.102 296.877 106.796 308.218 119.707L312.481 119.311C312.481 119.311 304.274 106.166 307.93 95.6874Z" fill="url(#paint73_linear_117_2707)"/>
<path d="M312.261 156.251C312.261 156.251 320.314 173.759 324.539 181.011C324.539 181.011 325.378 185.574 324.539 187.009L323.824 187.326L327.161 187.227C327.161 187.227 327.458 181.089 327.226 180.747C326.995 180.404 326.532 180.426 326.532 180.426C326.532 180.426 325.101 169.116 320.956 166.702L316.939 152.902L312.261 156.251Z" fill="url(#paint74_linear_117_2707)"/>
<path d="M322.398 188.186C322.393 188.266 325.005 188.229 326.423 188.203C326.947 188.194 327.393 187.827 327.505 187.316L328.576 181.702C328.678 181.169 328.338 180.651 327.807 180.53L327.21 180.393C327.21 180.393 326.357 181.561 326.625 182.659C326.894 183.758 327.133 186.605 326.454 186.937C325.775 187.268 323.824 187.326 323.824 187.326C323.824 187.326 322.443 187.463 322.398 188.186Z" fill="url(#paint75_linear_117_2707)"/>
<path d="M304.628 188.287C304.364 188.437 304.473 188.84 304.777 188.837C307.151 188.813 312.47 188.738 312.942 188.542C313.553 188.289 312.72 186.101 311.844 185.361L307.005 186.936L304.628 188.287Z" fill="url(#paint76_linear_117_2707)"/>
<path d="M303.126 155.135C303.126 155.135 308.331 180.248 309.803 185.146L306.32 187.326C306.32 187.326 308.065 187.03 309.36 186.937C310.654 186.843 311.844 185.361 311.844 185.361L311.427 184.698C311.427 184.698 310.122 159.722 310.44 156.886L303.126 155.135Z" fill="url(#paint77_linear_117_2707)"/>
<path d="M290.207 96.5595C290.207 96.5595 289.489 109.623 301.413 116.298L298.542 122.829C298.542 122.829 287.747 116.316 288.146 98.5524C288.158 98.0426 287.974 97.5475 287.64 97.1613L285.345 94.5064C284.471 93.4949 284.145 92.1226 284.47 90.827L284.772 89.6229C284.873 89.2198 285.333 89.0258 285.693 89.2345L285.933 89.3735C286.697 89.816 287.302 90.4868 287.663 91.2911L288.789 93.8031C289.21 94.7414 290.18 95.3111 291.207 95.2227L291.904 95.1627L290.207 96.5595Z" fill="url(#paint78_linear_117_2707)"/>
<path d="M312.984 118.469C312.54 117.875 311.87 117.491 311.132 117.408C307.199 116.965 302.615 115.757 301.032 115.319C300.71 115.23 300.376 115.409 300.269 115.725L298.212 122.001C298.052 122.491 298.238 123.026 298.667 123.311L299.089 123.591C298.782 124.501 298.379 125.447 298.921 126.24C300.797 128.985 303.174 134.493 303.174 134.493L311.619 134.531L311.413 132.153L313.476 120.541C313.606 119.812 313.428 119.062 312.984 118.469Z" fill="url(#paint79_linear_117_2707)"/>
<path d="M302.463 133.249L302.629 134.69C302.629 134.69 300.242 141.819 303.823 158.471C303.823 158.471 311.576 160.662 317.948 155.419C317.948 155.419 316.151 139.702 315.66 138.97C313.214 135.324 311.585 134.531 311.585 134.531L311.512 132.957C311.512 132.957 304.696 134.186 302.463 133.249Z" fill="url(#paint80_linear_117_2707)"/>
<path d="M305.769 116.494C305.739 116.455 307.532 111.095 307.532 111.095L310.1 111.328L311.103 117.409C311.103 117.409 307.079 118.219 305.769 116.494Z" fill="url(#paint81_linear_117_2707)"/>
<path d="M310.749 104.306C310.749 104.306 308.123 104.298 305.24 106.862C302.358 109.427 302.855 111.388 304.188 112.194C305.52 113.001 307.656 113.872 310.786 112.753C313.916 111.635 314.116 104.424 310.749 104.306Z" fill="url(#paint82_linear_117_2707)"/>
<path d="M312.021 102.312C308.979 102.486 308.269 104.86 308.269 104.86L309.543 104.592C313.09 106.156 310.909 109.293 310.204 110.168C310.092 110.307 310.093 110.503 310.207 110.64L310.211 110.645C310.211 110.645 311.536 110.056 311.586 111.031C311.635 112.007 310.021 113.106 310.021 113.106C310.021 113.106 309.972 115.249 312.44 114.39C314.908 113.53 316.465 111.616 316.837 107.786C317.21 103.956 315.063 102.137 312.021 102.312Z" fill="url(#paint83_linear_117_2707)"/>
<path d="M317.149 112.45C315.808 116.76 319.02 117.139 319.932 119.883C321.409 124.33 327.31 123.812 330.047 128.759C332.023 132.33 330.789 138.021 327.161 141.174C322.137 145.541 314.02 144.022 311.373 140.403C308.842 136.945 311.953 132.442 308.383 128.088C306.868 126.239 305.627 126.221 305.101 124.423C304.178 121.276 307.222 116.276 308.269 114.874C310.542 111.833 310.836 113.109 311.103 111.372C311.624 107.994 307.323 106.042 308.017 103.835C308.649 101.826 314.016 100.302 316.992 102.636C321.597 106.246 317.746 110.529 317.149 112.45Z" fill="url(#paint84_linear_117_2707)"/>
<path d="M326.159 139.419C326.219 139.451 326.296 139.441 326.344 139.388C328.471 137.058 329.389 134.694 329.073 132.363C328.549 128.494 324.734 126.05 324.696 126.025C324.639 125.981 324.532 126.002 324.487 126.073C324.443 126.143 324.463 126.236 324.534 126.281C324.572 126.304 328.269 128.676 328.773 132.406C329.076 134.644 328.184 136.925 326.12 139.185C326.064 139.246 326.068 139.342 326.13 139.398C326.139 139.406 326.149 139.413 326.159 139.419Z" fill="#91B3FA"/>
<path d="M311.822 134.764C311.828 134.767 311.834 134.77 311.84 134.772C311.881 134.782 311.922 134.757 311.932 134.717C312.632 131.953 312.447 129.667 311.386 127.922C310.613 126.652 309.588 126.012 308.684 125.447C307.812 124.902 307.058 124.431 306.738 123.533C306.076 121.676 307.67 118.958 311.477 115.453C311.507 115.425 311.509 115.377 311.481 115.346C311.452 115.315 311.404 115.314 311.374 115.342C307.519 118.892 305.912 121.665 306.596 123.583C306.934 124.531 307.707 125.015 308.603 125.574C309.493 126.131 310.502 126.761 311.256 128C312.296 129.709 312.474 131.957 311.785 134.68C311.777 134.714 311.793 134.748 311.822 134.764Z" fill="#91B3FA"/>
<path d="M314.321 111.189C314.326 111.195 314.332 111.2 314.34 111.205C314.375 111.226 314.422 111.214 314.443 111.178C315.355 109.632 314.082 108.554 312.733 107.412C311.88 106.69 310.997 105.942 310.578 105.023C310.266 104.337 310.236 103.795 310.488 103.413C310.917 102.761 312.037 102.774 312.049 102.773C312.091 102.774 312.125 102.741 312.126 102.7C312.127 102.658 312.093 102.624 312.052 102.623C312.002 102.622 310.837 102.608 310.361 103.329C310.079 103.758 310.106 104.349 310.441 105.085C310.874 106.036 311.769 106.794 312.636 107.527C313.989 108.674 315.161 109.665 314.313 111.102C314.296 111.13 314.3 111.165 314.321 111.189Z" fill="#91B3FA"/>
<path d="M310.047 110.762C310.047 110.762 312.133 109.065 312.854 110.508C313.575 111.952 310.98 112.35 310.001 112.42L310.047 110.762Z" fill="url(#paint85_linear_117_2707)"/>
<path d="M29.3448 64.4789C21.2777 67.3608 13.4521 74.5754 14.5416 83.7856C15.4682 91.6177 24.4778 93.9297 29.9434 94.7551C31.4679 94.9853 32.853 95.7647 33.8423 96.9445C36.2095 99.7676 41.2805 104.473 46.8455 101.341C47.2508 101.112 47.0697 100.491 46.6046 100.51C45.1252 100.568 43.0255 100.356 41.5966 98.9692C39.6504 97.0804 40.3551 93.8035 42.8703 92.7827C47.6305 90.851 56.6124 85.5917 55.4493 73.673C53.8765 57.554 29.3448 64.4789 29.3448 64.4789Z" fill="white"/>
<path d="M34.2564 77.3343C34.2564 77.3343 34.6536 71.9453 40.039 72.8359C45.1407 73.6797 43.5074 80.6422 36.3195 85.0731C35.5403 85.5535 34.5751 85.6241 33.7321 85.2666C30.5762 83.9281 23.2256 80.0946 27.2799 74.7707C29.8979 71.3326 34.2564 77.3343 34.2564 77.3343Z" fill="url(#paint86_linear_117_2707)"/>
<defs>
<linearGradient id="paint0_linear_117_2707" x1="339.252" y1="99.9403" x2="0.287333" y2="99.9403" gradientUnits="userSpaceOnUse">
<stop stop-color="#DAE3FE"/>
<stop offset="1" stop-color="#E9EFFD"/>
</linearGradient>
<linearGradient id="paint1_linear_117_2707" x1="168.055" y1="84.6774" x2="172.016" y2="41.3252" gradientUnits="userSpaceOnUse">
<stop stop-color="#4042E2"/>
<stop offset="1" stop-color="#4F52FF"/>
</linearGradient>
<linearGradient id="paint2_linear_117_2707" x1="399.893" y1="108.057" x2="507.065" y2="105.283" gradientUnits="userSpaceOnUse">
<stop stop-color="#4042E2"/>
<stop offset="1" stop-color="#4F52FF"/>
</linearGradient>
<linearGradient id="paint3_linear_117_2707" x1="119.974" y1="54.907" x2="98.497" y2="120.905" gradientUnits="userSpaceOnUse">
<stop stop-color="#4042E2"/>
<stop offset="1" stop-color="#4F52FF"/>
</linearGradient>
<linearGradient id="paint4_linear_117_2707" x1="94.4255" y1="74.4514" x2="105.903" y2="74.4514" gradientUnits="userSpaceOnUse">
<stop stop-color="#4042E2"/>
<stop offset="1" stop-color="#4F52FF"/>
</linearGradient>
<linearGradient id="paint5_linear_117_2707" x1="129.735" y1="69.2522" x2="180.384" y2="69.2522" gradientUnits="userSpaceOnUse">
<stop stop-color="#DAE3FE"/>
<stop offset="1" stop-color="#E9EFFD"/>
</linearGradient>
<linearGradient id="paint6_linear_117_2707" x1="115.399" y1="87.8193" x2="192.948" y2="87.8193" gradientUnits="userSpaceOnUse">
<stop stop-color="#DAE3FE"/>
<stop offset="1" stop-color="#E9EFFD"/>
</linearGradient>
<linearGradient id="paint7_linear_117_2707" x1="156.277" y1="-46.5715" x2="155.664" y2="-0.505183" gradientUnits="userSpaceOnUse">
<stop stop-color="#09005D"/>
<stop offset="1" stop-color="#1A0F91"/>
</linearGradient>
<linearGradient id="paint8_linear_117_2707" x1="154.354" y1="-46.5969" x2="153.742" y2="-0.53045" gradientUnits="userSpaceOnUse">
<stop stop-color="#09005D"/>
<stop offset="1" stop-color="#1A0F91"/>
</linearGradient>
<linearGradient id="paint9_linear_117_2707" x1="195.708" y1="232.01" x2="230.185" y2="92.1861" gradientUnits="userSpaceOnUse">
<stop stop-color="#E63946"/>
<stop offset="1" stop-color="#E63946"/>
</linearGradient>
<linearGradient id="paint10_linear_117_2707" x1="136.636" y1="100.361" x2="139.7" y2="193.723" gradientUnits="userSpaceOnUse">
<stop stop-color="#E63946"/>
<stop offset="1" stop-color="#E63946"/>
</linearGradient>
<linearGradient id="paint11_linear_117_2707" x1="212.049" y1="73.6038" x2="227.377" y2="111.098" gradientUnits="userSpaceOnUse">
<stop stop-color="#FE7062"/>
<stop offset="1" stop-color="#FF928E"/>
</linearGradient>
<linearGradient id="paint12_linear_117_2707" x1="171.467" y1="59.5701" x2="135.853" y2="100.197" gradientUnits="userSpaceOnUse">
<stop stop-color="#FE7062"/>
<stop offset="1" stop-color="#FF928E"/>
</linearGradient>
<linearGradient id="paint13_linear_117_2707" x1="98.5361" y1="29.0473" x2="98.5361" y2="110.108" gradientUnits="userSpaceOnUse">
<stop stop-color="#09005D"/>
<stop offset="1" stop-color="#1A0F91"/>
</linearGradient>
<linearGradient id="paint14_linear_117_2707" x1="114.068" y1="29.0473" x2="114.068" y2="110.108" gradientUnits="userSpaceOnUse">
<stop stop-color="#09005D"/>
<stop offset="1" stop-color="#1A0F91"/>
</linearGradient>
<linearGradient id="paint15_linear_117_2707" x1="129.87" y1="29.0472" x2="129.87" y2="110.108" gradientUnits="userSpaceOnUse">
<stop stop-color="#09005D"/>
<stop offset="1" stop-color="#1A0F91"/>
</linearGradient>
<linearGradient id="paint16_linear_117_2707" x1="144.919" y1="29.0472" x2="144.919" y2="110.108" gradientUnits="userSpaceOnUse">
<stop stop-color="#09005D"/>
<stop offset="1" stop-color="#1A0F91"/>
</linearGradient>
<linearGradient id="paint17_linear_117_2707" x1="156.663" y1="29.0472" x2="156.663" y2="110.108" gradientUnits="userSpaceOnUse">
<stop stop-color="#09005D"/>
<stop offset="1" stop-color="#1A0F91"/>
</linearGradient>
<linearGradient id="paint18_linear_117_2707" x1="169.138" y1="29.0472" x2="169.138" y2="110.108" gradientUnits="userSpaceOnUse">
<stop stop-color="#09005D"/>
<stop offset="1" stop-color="#1A0F91"/>
</linearGradient>
<linearGradient id="paint19_linear_117_2707" x1="46.8335" y1="141.681" x2="56.1931" y2="141.681" gradientUnits="userSpaceOnUse">
<stop stop-color="#FF928E"/>
<stop offset="1" stop-color="#FEB3B1"/>
</linearGradient>
<linearGradient id="paint20_linear_117_2707" x1="61.8657" y1="143.11" x2="60.7169" y2="169.597" gradientUnits="userSpaceOnUse">
<stop stop-color="#1D3557"/>
<stop offset="1" stop-color="#1D3557"/>
</linearGradient>
<linearGradient id="paint21_linear_117_2707" x1="59.8106" y1="147.54" x2="59.8106" y2="187.156" gradientUnits="userSpaceOnUse">
<stop stop-color="#4042E2"/>
<stop offset="1" stop-color="#4F52FF"/>
</linearGradient>
<linearGradient id="paint22_linear_117_2707" x1="58.1963" y1="181.743" x2="56.8622" y2="193.415" gradientUnits="userSpaceOnUse">
<stop stop-color="#FF928E"/>
<stop offset="1" stop-color="#FEB3B1"/>
</linearGradient>
<linearGradient id="paint23_linear_117_2707" x1="72.0048" y1="147.542" x2="72.0048" y2="187.157" gradientUnits="userSpaceOnUse">
<stop stop-color="#4042E2"/>
<stop offset="1" stop-color="#4F52FF"/>
</linearGradient>
<linearGradient id="paint24_linear_117_2707" x1="74.0848" y1="143.64" x2="72.936" y2="170.127" gradientUnits="userSpaceOnUse">
<stop stop-color="#09005D"/>
<stop offset="1" stop-color="#1A0F91"/>
</linearGradient>
<linearGradient id="paint25_linear_117_2707" x1="69.1162" y1="182.991" x2="67.7822" y2="194.663" gradientUnits="userSpaceOnUse">
<stop stop-color="#FF928E"/>
<stop offset="1" stop-color="#FEB3B1"/>
</linearGradient>
<linearGradient id="paint26_linear_117_2707" x1="50.217" y1="183.533" x2="7.49106" y2="249.998" gradientUnits="userSpaceOnUse">
<stop stop-color="#4042E2"/>
<stop offset="1" stop-color="#4F52FF"/>
</linearGradient>
<linearGradient id="paint27_linear_117_2707" x1="58.7376" y1="116.579" x2="51.8863" y2="183.833" gradientUnits="userSpaceOnUse">
<stop stop-color="#4042E2"/>
<stop offset="1" stop-color="#4F52FF"/>
</linearGradient>
<linearGradient id="paint28_linear_117_2707" x1="59.7884" y1="103.718" x2="59.7884" y2="121.224" gradientUnits="userSpaceOnUse">
<stop stop-color="#FF928E"/>
<stop offset="1" stop-color="#FEB3B1"/>
</linearGradient>
<linearGradient id="paint29_linear_117_2707" x1="67.6631" y1="95.2081" x2="62.0395" y2="104.741" gradientUnits="userSpaceOnUse">
<stop stop-color="#FF928E"/>
<stop offset="1" stop-color="#FEB3B1"/>
</linearGradient>
<linearGradient id="paint30_linear_117_2707" x1="57.6566" y1="109.874" x2="65.0718" y2="101.977" gradientUnits="userSpaceOnUse">
<stop stop-color="#09005D"/>
<stop offset="1" stop-color="#1A0F91"/>
</linearGradient>
<linearGradient id="paint31_linear_117_2707" x1="58.1213" y1="119.029" x2="57.6747" y2="108.63" gradientUnits="userSpaceOnUse">
<stop stop-color="#FF928E"/>
<stop offset="1" stop-color="#FEB3B1"/>
</linearGradient>
<linearGradient id="paint32_linear_117_2707" x1="56.3631" y1="112.231" x2="52.785" y2="118.791" gradientUnits="userSpaceOnUse">
<stop stop-color="#09005D"/>
<stop offset="1" stop-color="#1A0F91"/>
</linearGradient>
<linearGradient id="paint33_linear_117_2707" x1="66.8878" y1="119.086" x2="61.602" y2="139.361" gradientUnits="userSpaceOnUse">
<stop stop-color="#1D3557"/>
<stop offset="1" stop-color="#1D3557"/>
</linearGradient>
<linearGradient id="paint34_linear_117_2707" x1="74.4258" y1="118.072" x2="67.092" y2="190.063" gradientUnits="userSpaceOnUse">
<stop stop-color="#4042E2"/>
<stop offset="1" stop-color="#4F52FF"/>
</linearGradient>
<linearGradient id="paint35_linear_117_2707" x1="102.737" y1="29.9659" x2="97.222" y2="68.6656" gradientUnits="userSpaceOnUse">
<stop stop-color="#FF928E"/>
<stop offset="1" stop-color="#FEB3B1"/>
</linearGradient>
<linearGradient id="paint36_linear_117_2707" x1="109.452" y1="30.9225" x2="103.937" y2="69.6222" gradientUnits="userSpaceOnUse">
<stop stop-color="#FF928E"/>
<stop offset="1" stop-color="#FEB3B1"/>
</linearGradient>
<linearGradient id="paint37_linear_117_2707" x1="33.4768" y1="132.21" x2="44.5582" y2="132.21" gradientUnits="userSpaceOnUse">
<stop stop-color="#FF928E"/>
<stop offset="1" stop-color="#FEB3B1"/>
</linearGradient>
<linearGradient id="paint38_linear_117_2707" x1="35.3733" y1="171.842" x2="35.6091" y2="197.838" gradientUnits="userSpaceOnUse">
<stop stop-color="#1D3557"/>
<stop offset="1" stop-color="#1D3557"/>
</linearGradient>
<linearGradient id="paint39_linear_117_2707" x1="29.9455" y1="188.733" x2="32.8968" y2="188.733" gradientUnits="userSpaceOnUse">
<stop stop-color="#FF928E"/>
<stop offset="1" stop-color="#FEB3B1"/>
</linearGradient>
<linearGradient id="paint40_linear_117_2707" x1="26.6114" y1="199.934" x2="28.6156" y2="146.021" gradientUnits="userSpaceOnUse">
<stop stop-color="#1D3557"/>
<stop offset="1" stop-color="#1D3557"/>
</linearGradient>
<linearGradient id="paint41_linear_117_2707" x1="20.8663" y1="171.974" x2="21.102" y2="197.97" gradientUnits="userSpaceOnUse">
<stop stop-color="#1D3557"/>
<stop offset="1" stop-color="#1D3557"/>
</linearGradient>
<linearGradient id="paint42_linear_117_2707" x1="19.3088" y1="188.582" x2="21.8569" y2="188.582" gradientUnits="userSpaceOnUse">
<stop stop-color="#FF928E"/>
<stop offset="1" stop-color="#FEB3B1"/>
</linearGradient>
<linearGradient id="paint43_linear_117_2707" x1="21.6298" y1="199.749" x2="23.634" y2="145.836" gradientUnits="userSpaceOnUse">
<stop stop-color="#09005D"/>
<stop offset="1" stop-color="#1A0F91"/>
</linearGradient>
<linearGradient id="paint44_linear_117_2707" x1="28.1885" y1="120.171" x2="12.9235" y2="160.43" gradientUnits="userSpaceOnUse">
<stop stop-color="#FE7062"/>
<stop offset="1" stop-color="#FF928E"/>
</linearGradient>
<linearGradient id="paint45_linear_117_2707" x1="18.7114" y1="116.577" x2="3.44648" y2="156.836" gradientUnits="userSpaceOnUse">
<stop stop-color="#FE7062"/>
<stop offset="1" stop-color="#FF928E"/>
</linearGradient>
<linearGradient id="paint46_linear_117_2707" x1="22.4469" y1="127.334" x2="14.0539" y2="136.261" gradientUnits="userSpaceOnUse">
<stop stop-color="#FF928E"/>
<stop offset="1" stop-color="#FEB3B1"/>
</linearGradient>
<linearGradient id="paint47_linear_117_2707" x1="46.3101" y1="98.3577" x2="42.6325" y2="110.494" gradientUnits="userSpaceOnUse">
<stop stop-color="#1D3557"/>
<stop offset="1" stop-color="#1D3557"/>
</linearGradient>
<linearGradient id="paint48_linear_117_2707" x1="41.1531" y1="112.83" x2="38.9293" y2="122.62" gradientUnits="userSpaceOnUse">
<stop stop-color="#4042E2"/>
<stop offset="1" stop-color="#4F52FF"/>
</linearGradient>
<linearGradient id="paint49_linear_117_2707" x1="41.7071" y1="116.819" x2="34.9605" y2="129.834" gradientUnits="userSpaceOnUse">
<stop stop-color="#4042E2"/>
<stop offset="1" stop-color="#4F52FF"/>
</linearGradient>
<linearGradient id="paint50_linear_117_2707" x1="40.9278" y1="113.633" x2="35.7127" y2="121.937" gradientUnits="userSpaceOnUse">
<stop stop-color="#FF928E"/>
<stop offset="1" stop-color="#FEB3B1"/>
</linearGradient>
<linearGradient id="paint51_linear_117_2707" x1="46.1834" y1="128.077" x2="41.1543" y2="124.916" gradientUnits="userSpaceOnUse">
<stop stop-color="#FF928E"/>
<stop offset="1" stop-color="#FEB3B1"/>
</linearGradient>
<linearGradient id="paint52_linear_117_2707" x1="31.549" y1="101.041" x2="26.2635" y2="124.079" gradientUnits="userSpaceOnUse">
<stop stop-color="#FF928E"/>
<stop offset="1" stop-color="#FEB3B1"/>
</linearGradient>
<linearGradient id="paint53_linear_117_2707" x1="607.071" y1="210.108" x2="596.424" y2="208.191" gradientUnits="userSpaceOnUse">
<stop stop-color="#FF928E"/>
<stop offset="1" stop-color="#FEB3B1"/>
</linearGradient>
<linearGradient id="paint54_linear_117_2707" x1="21.3509" y1="98.3231" x2="32.0457" y2="106.791" gradientUnits="userSpaceOnUse">
<stop stop-color="#09005D"/>
<stop offset="1" stop-color="#1A0F91"/>
</linearGradient>
<linearGradient id="paint55_linear_117_2707" x1="606.769" y1="211.781" x2="596.122" y2="209.864" gradientUnits="userSpaceOnUse">
<stop stop-color="#FF928E"/>
<stop offset="1" stop-color="#FEB3B1"/>
</linearGradient>
<linearGradient id="paint56_linear_117_2707" x1="258.846" y1="100.453" x2="270.255" y2="87.1778" gradientUnits="userSpaceOnUse">
<stop stop-color="#FE7062"/>
<stop offset="1" stop-color="#FF928E"/>
</linearGradient>
<linearGradient id="paint57_linear_117_2707" x1="276.753" y1="77.5438" x2="243.037" y2="128.607" gradientUnits="userSpaceOnUse">
<stop stop-color="#FE7062"/>
<stop offset="1" stop-color="#FF928E"/>
</linearGradient>
<linearGradient id="paint58_linear_117_2707" x1="275.743" y1="79.0048" x2="257.794" y2="109.214" gradientUnits="userSpaceOnUse">
<stop stop-color="#FE7062"/>
<stop offset="1" stop-color="#FF928E"/>
</linearGradient>
<linearGradient id="paint59_linear_117_2707" x1="232.511" y1="119.382" x2="248.966" y2="100.235" gradientUnits="userSpaceOnUse">
<stop stop-color="#E1473D"/>
<stop offset="1" stop-color="#E9605A"/>
</linearGradient>
<linearGradient id="paint60_linear_117_2707" x1="258.339" y1="86.3404" x2="209.711" y2="159.987" gradientUnits="userSpaceOnUse">
<stop stop-color="#FE7062"/>
<stop offset="1" stop-color="#FF928E"/>
</linearGradient>
<linearGradient id="paint61_linear_117_2707" x1="256.882" y1="88.4473" x2="230.995" y2="132.017" gradientUnits="userSpaceOnUse">
<stop stop-color="#FE7062"/>
<stop offset="1" stop-color="#FF928E"/>
</linearGradient>
<linearGradient id="paint62_linear_117_2707" x1="256.871" y1="134.377" x2="271.845" y2="116.954" gradientUnits="userSpaceOnUse">
<stop stop-color="#E1473D"/>
<stop offset="1" stop-color="#E9605A"/>
</linearGradient>
<linearGradient id="paint63_linear_117_2707" x1="280.373" y1="104.309" x2="236.122" y2="171.327" gradientUnits="userSpaceOnUse">
<stop stop-color="#FE7062"/>
<stop offset="1" stop-color="#FF928E"/>
</linearGradient>
<linearGradient id="paint64_linear_117_2707" x1="279.049" y1="106.227" x2="255.491" y2="145.875" gradientUnits="userSpaceOnUse">
<stop stop-color="#FE7062"/>
<stop offset="1" stop-color="#FF928E"/>
</linearGradient>
<linearGradient id="paint65_linear_117_2707" x1="240.168" y1="165.022" x2="294.206" y2="165.022" gradientUnits="userSpaceOnUse">
<stop stop-color="#4042E2"/>
<stop offset="1" stop-color="#4F52FF"/>
</linearGradient>
<linearGradient id="paint66_linear_117_2707" x1="264.403" y1="151.739" x2="269.324" y2="131.784" gradientUnits="userSpaceOnUse">
<stop stop-color="#4042E2"/>
<stop offset="1" stop-color="#4F52FF"/>
</linearGradient>
<linearGradient id="paint67_linear_117_2707" x1="266.322" y1="112.571" x2="267.241" y2="136.679" gradientUnits="userSpaceOnUse">
<stop stop-color="#09005D"/>
<stop offset="1" stop-color="#1A0F91"/>
</linearGradient>
<linearGradient id="paint68_linear_117_2707" x1="246.676" y1="164.308" x2="287.205" y2="164.308" gradientUnits="userSpaceOnUse">
<stop stop-color="#DAE3FE"/>
<stop offset="1" stop-color="#E9EFFD"/>
</linearGradient>
<linearGradient id="paint69_linear_117_2707" x1="243.439" y1="240.242" x2="262.057" y2="179.579" gradientUnits="userSpaceOnUse">
<stop stop-color="#E1473D"/>
<stop offset="1" stop-color="#E9605A"/>
</linearGradient>
<linearGradient id="paint70_linear_117_2707" x1="274.824" y1="106.898" x2="297.628" y2="80.3629" gradientUnits="userSpaceOnUse">
<stop stop-color="#E1473D"/>
<stop offset="1" stop-color="#E9605A"/>
</linearGradient>
<linearGradient id="paint71_linear_117_2707" x1="310.616" y1="61.1071" x2="243.227" y2="163.169" gradientUnits="userSpaceOnUse">
<stop stop-color="#FE7062"/>
<stop offset="1" stop-color="#FF928E"/>
</linearGradient>
<linearGradient id="paint72_linear_117_2707" x1="308.598" y1="64.027" x2="272.723" y2="124.408" gradientUnits="userSpaceOnUse">
<stop stop-color="#FE7062"/>
<stop offset="1" stop-color="#FF928E"/>
</linearGradient>
<linearGradient id="paint73_linear_117_2707" x1="314.894" y1="89.0589" x2="306.853" y2="113.77" gradientUnits="userSpaceOnUse">
<stop stop-color="#FF928E"/>
<stop offset="1" stop-color="#FEB3B1"/>
</linearGradient>
<linearGradient id="paint74_linear_117_2707" x1="312.261" y1="170.114" x2="327.315" y2="170.114" gradientUnits="userSpaceOnUse">
<stop stop-color="#FF928E"/>
<stop offset="1" stop-color="#FEB3B1"/>
</linearGradient>
<linearGradient id="paint75_linear_117_2707" x1="332.953" y1="136.532" x2="325.534" y2="184.876" gradientUnits="userSpaceOnUse">
<stop stop-color="#1D3557"/>
<stop offset="1" stop-color="#1D3557"/>
</linearGradient>
<linearGradient id="paint76_linear_117_2707" x1="317.179" y1="134.111" x2="309.76" y2="182.455" gradientUnits="userSpaceOnUse">
<stop stop-color="#1D3557"/>
<stop offset="1" stop-color="#1D3557"/>
</linearGradient>
<linearGradient id="paint77_linear_117_2707" x1="303.127" y1="171.231" x2="311.844" y2="171.231" gradientUnits="userSpaceOnUse">
<stop stop-color="#FF928E"/>
<stop offset="1" stop-color="#FEB3B1"/>
</linearGradient>
<linearGradient id="paint78_linear_117_2707" x1="292.266" y1="77.1513" x2="292.572" y2="90.6641" gradientUnits="userSpaceOnUse">
<stop stop-color="#FF928E"/>
<stop offset="1" stop-color="#FEB3B1"/>
</linearGradient>
<linearGradient id="paint79_linear_117_2707" x1="302.514" y1="115.53" x2="334.382" y2="178.805" gradientUnits="userSpaceOnUse">
<stop stop-color="#FE7062"/>
<stop offset="1" stop-color="#FF928E"/>
</linearGradient>
<linearGradient id="paint80_linear_117_2707" x1="295.429" y1="131.947" x2="323.308" y2="163.467" gradientUnits="userSpaceOnUse">
<stop stop-color="#1D3557"/>
<stop offset="1" stop-color="#1D3557"/>
</linearGradient>
<linearGradient id="paint81_linear_117_2707" x1="305.769" y1="114.347" x2="311.103" y2="114.347" gradientUnits="userSpaceOnUse">
<stop stop-color="#FF928E"/>
<stop offset="1" stop-color="#FEB3B1"/>
</linearGradient>
<linearGradient id="paint82_linear_117_2707" x1="306.054" y1="105.43" x2="313.706" y2="117.361" gradientUnits="userSpaceOnUse">
<stop stop-color="#FF928E"/>
<stop offset="1" stop-color="#FEB3B1"/>
</linearGradient>
<linearGradient id="paint83_linear_117_2707" x1="329.182" y1="90.3666" x2="304.95" y2="115.641" gradientUnits="userSpaceOnUse">
<stop stop-color="#09005D"/>
<stop offset="1" stop-color="#1A0F91"/>
</linearGradient>
<linearGradient id="paint84_linear_117_2707" x1="332.901" y1="132.088" x2="301.843" y2="114.987" gradientUnits="userSpaceOnUse">
<stop stop-color="#1D3557"/>
<stop offset="1" stop-color="#1D3557"/>
</linearGradient>
<linearGradient id="paint85_linear_117_2707" x1="306.413" y1="103.678" x2="315.179" y2="117.345" gradientUnits="userSpaceOnUse">
<stop stop-color="#FF928E"/>
<stop offset="1" stop-color="#FEB3B1"/>
</linearGradient>
<linearGradient id="paint86_linear_117_2707" x1="26.0897" y1="79.1142" x2="43.0048" y2="79.1142" gradientUnits="userSpaceOnUse">
<stop stop-color="#FE7062"/>
<stop offset="1" stop-color="#FF928E"/>
</linearGradient>
</defs>
</svg>
