<svg width="24" height="25" viewBox="0 0 24 25" fill="none" xmlns="http://www.w3.org/2000/svg">
<path d="M24 2.125V18.625H8.25L3 23.875V18.625H0V2.125H24ZM12 15.625H10.5V17.125H12V15.625ZM12.0938 13.6445C12.0938 13.3555 12.1211 13.082 12.1758 12.8242C12.2305 12.5664 12.3711 12.3242 12.5977 12.0977C12.9023 11.793 13.2031 11.5039 13.5 11.2305C13.7969 10.957 14.0625 10.6641 14.2969 10.3516C14.5312 10.0391 14.7227 9.70703 14.8711 9.35547C15.0195 9.00391 15.0938 8.59375 15.0938 8.125C15.0938 7.59375 14.9922 7.09766 14.7891 6.63672C14.5859 6.17578 14.3125 5.76953 13.9688 5.41797C13.625 5.06641 13.2188 4.78906 12.75 4.58594C12.2812 4.38281 11.7812 4.28125 11.25 4.28125C10.7188 4.28125 10.2227 4.38281 9.76172 4.58594C9.30078 4.78906 8.89453 5.0625 8.54297 5.40625C8.19141 5.75 7.91406 6.15625 7.71094 6.625C7.50781 7.09375 7.40625 7.59375 7.40625 8.125H9.09375C9.09375 7.82812 9.14844 7.55078 9.25781 7.29297C9.36719 7.03516 9.52344 6.80469 9.72656 6.60156C9.92969 6.39844 10.1562 6.24609 10.4062 6.14453C10.6562 6.04297 10.9375 5.98438 11.25 5.96875C11.5469 5.96875 11.8242 6.02344 12.082 6.13281C12.3398 6.24219 12.5703 6.39844 12.7734 6.60156C12.9766 6.80469 13.1289 7.03125 13.2305 7.28125C13.332 7.53125 13.3906 7.8125 13.4062 8.125C13.4062 8.44531 13.332 8.73047 13.1836 8.98047C13.0352 9.23047 12.8516 9.46875 12.6328 9.69531C12.4141 9.92188 12.1719 10.1562 11.9062 10.3984C11.6406 10.6406 11.4023 10.8984 11.1914 11.1719C10.9805 11.4453 10.793 11.7617 10.6289 12.1211C10.4648 12.4805 10.3906 12.8984 10.4062 13.375V14.125H12.0938V13.6445Z" fill="white"/>
</svg>
