<svg width="20" height="39" viewBox="0 0 20 39" fill="none" xmlns="http://www.w3.org/2000/svg">
<g clip-path="url(#clip0_137_94)">
<path d="M9.376 29.444C9.16267 29.444 8.98133 29.38 8.832 29.252C8.704 29.1027 8.64 28.9213 8.64 28.708V22.052H2.08C1.86667 22.052 1.68533 21.988 1.536 21.86C1.408 21.7107 1.344 21.5293 1.344 21.316V20.292C1.344 20.0787 1.408 19.908 1.536 19.78C1.68533 19.6307 1.86667 19.556 2.08 19.556H8.64V13.092C8.64 12.8787 8.704 12.708 8.832 12.58C8.98133 12.4307 9.16267 12.356 9.376 12.356H10.496C10.7093 12.356 10.88 12.4307 11.008 12.58C11.1573 12.708 11.232 12.8787 11.232 13.092V19.556H17.824C18.0373 19.556 18.208 19.6307 18.336 19.78C18.4853 19.908 18.56 20.0787 18.56 20.292V21.316C18.56 21.5293 18.4853 21.7107 18.336 21.86C18.208 21.988 18.0373 22.052 17.824 22.052H11.232V28.708C11.232 28.9213 11.1573 29.1027 11.008 29.252C10.88 29.38 10.7093 29.444 10.496 29.444H9.376Z" fill="#207DFF"/>
</g>
<defs>
<clipPath id="clip0_137_94">
<rect width="20" height="38" fill="white" transform="translate(0 0.5)"/>
</clipPath>
</defs>
</svg>
