<svg width="16" height="16" viewBox="0 0 16 16" fill="none" xmlns="http://www.w3.org/2000/svg">
<path d="M8 1.5C6.264 1.5 4.631 2.176 3.404 3.404C2.177 4.632 1.5 6.264 1.5 8C1.5 9.736 2.176 11.369 3.404 12.596C4.632 13.823 6.264 14.5 8 14.5C9.736 14.5 11.369 13.824 12.596 12.596C13.823 11.368 14.5 9.736 14.5 8C14.5 6.264 13.824 4.631 12.596 3.404C11.368 2.177 9.736 1.5 8 1.5ZM8 0C10.1217 0 12.1566 0.842855 13.6569 2.34315C15.1571 3.84344 16 5.87827 16 8C16 10.1217 15.1571 12.1566 13.6569 13.6569C12.1566 15.1571 10.1217 16 8 16C5.87827 16 3.84344 15.1571 2.34315 13.6569C0.842855 12.1566 0 10.1217 0 8C0 5.87827 0.842855 3.84344 2.34315 2.34315C3.84344 0.842855 5.87827 0 8 0ZM7 11H9V13H7V11ZM7 3H9V9H7V3Z" fill="black"/>
</svg>
