<svg width="41" height="40" viewBox="0 0 41 40" fill="none" xmlns="http://www.w3.org/2000/svg">
<rect x="0.5" width="40" height="40" rx="20" fill="white"/>
<path d="M8.50288 31.5143C8.50379 31.579 8.51743 31.6428 8.54302 31.7023C8.56862 31.7617 8.60567 31.8155 8.65206 31.8606C8.69845 31.9057 8.75327 31.9412 8.81339 31.9651C8.87351 31.989 8.93776 32.0009 9.00245 31.9999H31.9959C32.0607 32.0009 32.125 31.9892 32.1852 31.9653C32.2454 31.9414 32.3003 31.9059 32.3467 31.8608C32.3932 31.8157 32.4303 31.7619 32.4559 31.7024C32.4816 31.6429 32.4952 31.579 32.4961 31.5143V30.9345C32.5075 30.7595 32.5309 29.8879 31.9561 28.9235C31.5936 28.3153 31.0675 27.7905 30.3924 27.3623C29.5758 26.8444 28.5368 26.4698 27.28 26.2444C26.642 26.1548 26.0091 26.0317 25.384 25.8755C23.7218 25.4511 23.5765 25.0753 23.5752 25.0715C23.5654 25.0345 23.5514 24.9987 23.5335 24.9648C23.5197 24.8953 23.4862 24.6313 23.5506 23.9246C23.7135 22.129 24.6767 21.0679 25.4504 20.2153C25.6941 19.9469 25.9247 19.6924 26.1021 19.4435C26.8682 18.3698 26.939 17.1477 26.9421 17.0719C26.945 16.9376 26.9265 16.8038 26.8872 16.6753C26.8114 16.4416 26.6705 16.2964 26.567 16.189C26.5425 16.1644 26.5187 16.1391 26.4956 16.1132C26.488 16.1044 26.4678 16.0804 26.4861 15.9597C26.5481 15.5711 26.5909 15.1797 26.6143 14.7869C26.6497 14.154 26.6769 13.2079 26.5133 12.2865C26.4893 12.1104 26.453 11.9363 26.4047 11.7654C26.2329 11.1309 25.955 10.5898 25.571 10.1422C25.5047 10.0696 23.8954 8.37383 19.2237 8.02646C18.5776 7.97846 17.9391 8.00435 17.3101 8.03656C17.1241 8.04074 16.9389 8.06359 16.7575 8.10477C16.2749 8.22919 16.1461 8.53488 16.1126 8.70604C16.0564 8.99025 16.1549 9.21004 16.22 9.35656C16.2295 9.3774 16.2415 9.4033 16.2206 9.47151C16.1126 9.63951 15.9415 9.79109 15.7678 9.93446C15.7173 9.97677 14.5463 10.9873 14.4819 12.3067C14.3082 13.3102 14.3209 14.8734 14.5261 15.954C14.5388 16.014 14.5558 16.1025 14.5274 16.1625C14.3064 16.3601 14.0563 16.5844 14.0569 17.0959C14.0594 17.1477 14.1308 18.3692 14.8969 19.4435C15.0737 19.6924 15.3042 19.9463 15.5474 20.2147L15.5486 20.2153C16.3223 21.0679 17.2855 22.129 17.4484 23.9239C17.5122 24.6313 17.4787 24.8947 17.4655 24.9648C17.4473 24.9986 17.4331 25.0344 17.4231 25.0715C17.4225 25.0753 17.2779 25.4498 15.6232 25.8736C14.6682 26.118 13.7285 26.2431 13.7 26.2463C12.4786 26.4528 11.446 26.8185 10.6306 27.3332C9.95801 27.7583 9.43065 28.285 9.06434 28.8976C8.47825 29.8766 8.49404 30.7684 8.50225 30.9313L8.50288 31.5143Z" fill="#E63946" stroke="#E63946" stroke-width="2" stroke-linejoin="round"/>
</svg>
