<svg width="25" height="25" viewBox="0 0 25 25" fill="none" xmlns="http://www.w3.org/2000/svg">
<path d="M6.636 18.9889C8.10845 20.4614 10.0459 21.3777 12.1183 21.5817C14.1906 21.7857 16.2696 21.2648 18.0009 20.1077C19.7322 18.9506 21.0087 17.229 21.6129 15.2362C22.217 13.2434 22.1115 11.1028 21.3142 9.17908C20.5169 7.25539 19.0772 5.6677 17.2404 4.68658C15.4037 3.70545 13.2835 3.3916 11.2413 3.79852C9.19909 4.20543 7.36116 5.30793 6.04073 6.91812C4.72031 8.52832 3.99909 10.5466 4 12.6289V14.6249" stroke="white" stroke-width="2.5" stroke-linecap="round" stroke-linejoin="round"/>
<path d="M2 12.625L4 14.625L6 12.625M12 8.625V13.625H17" stroke="white" stroke-width="2.5" stroke-linecap="round" stroke-linejoin="round"/>
</svg>
