<svg width="24" height="24" viewBox="0 0 24 24" fill="none" xmlns="http://www.w3.org/2000/svg">
<path d="M12 21.75C15.75 16.5 18.75 12 18.75 9C18.75 7.20979 18.0388 5.4929 16.773 4.22703C15.5071 2.96116 13.7902 2.25 12 2.25C10.2098 2.25 8.4929 2.96116 7.22703 4.22703C5.96116 5.4929 5.25 7.20979 5.25 9C5.25 12 8.25 16.5 12 21.75Z" stroke="black" stroke-width="2"/>
<path d="M15 9C15 9.79565 14.6839 10.5587 14.1213 11.1213C13.5587 11.6839 12.7956 12 12 12C11.2044 12 10.4413 11.6839 9.87868 11.1213C9.31607 10.5587 9 9.79565 9 9C9 8.20435 9.31607 7.44129 9.87868 6.87868C10.4413 6.31607 11.2044 6 12 6C12.7956 6 13.5587 6.31607 14.1213 6.87868C14.6839 7.44129 15 8.20435 15 9Z" stroke="black" stroke-width="2"/>
</svg>
