<svg width="60" height="60" viewBox="0 0 60 60" fill="none" xmlns="http://www.w3.org/2000/svg">
<path d="M30 33.5L37.25 40.75C37.7083 41.2083 38.2917 41.4375 39 41.4375C39.7083 41.4375 40.2917 41.2083 40.75 40.75C41.2083 40.2917 41.4375 39.7083 41.4375 39C41.4375 38.2917 41.2083 37.7083 40.75 37.25L33.5 30L40.75 22.75C41.2083 22.2917 41.4375 21.7083 41.4375 21C41.4375 20.2917 41.2083 19.7083 40.75 19.25C40.2917 18.7917 39.7083 18.5625 39 18.5625C38.2917 18.5625 37.7083 18.7917 37.25 19.25L30 26.5L22.75 19.25C22.2917 18.7917 21.7083 18.5625 21 18.5625C20.2917 18.5625 19.7083 18.7917 19.25 19.25C18.7917 19.7083 18.5625 20.2917 18.5625 21C18.5625 21.7083 18.7917 22.2917 19.25 22.75L26.5 30L19.25 37.25C18.7917 37.7083 18.5625 38.2917 18.5625 39C18.5625 39.7083 18.7917 40.2917 19.25 40.75C19.7083 41.2083 20.2917 41.4375 21 41.4375C21.7083 41.4375 22.2917 41.2083 22.75 40.75L30 33.5ZM30 55C26.5417 55 23.2917 54.3433 20.25 53.03C17.2083 51.7167 14.5625 49.9358 12.3125 47.6875C10.0625 45.4392 8.28167 42.7933 6.97 39.75C5.65834 36.7067 5.00167 33.4567 5 30C4.99834 26.5433 5.655 23.2933 6.97 20.25C8.285 17.2067 10.0658 14.5608 12.3125 12.3125C14.5592 10.0642 17.205 8.28333 20.25 6.97C23.295 5.65667 26.545 5 30 5C33.455 5 36.705 5.65667 39.75 6.97C42.795 8.28333 45.4408 10.0642 47.6875 12.3125C49.9342 14.5608 51.7158 17.2067 53.0325 20.25C54.3492 23.2933 55.005 26.5433 55 30C54.995 33.4567 54.3383 36.7067 53.03 39.75C51.7217 42.7933 49.9408 45.4392 47.6875 47.6875C45.4342 49.9358 42.7883 51.7175 39.75 53.0325C36.7117 54.3475 33.4617 55.0033 30 55ZM30 50C35.5833 50 40.3125 48.0625 44.1875 44.1875C48.0625 40.3125 50 35.5833 50 30C50 24.4167 48.0625 19.6875 44.1875 15.8125C40.3125 11.9375 35.5833 10 30 10C24.4167 10 19.6875 11.9375 15.8125 15.8125C11.9375 19.6875 10 24.4167 10 30C10 35.5833 11.9375 40.3125 15.8125 44.1875C19.6875 48.0625 24.4167 50 30 50Z" fill="#696969"/>
</svg>
