<svg width="24" height="25" viewBox="0 0 24 25" fill="none" xmlns="http://www.w3.org/2000/svg">
<path fill-rule="evenodd" clip-rule="evenodd" d="M10.8 3.275C11.1462 3.01536 11.5673 2.875 12 2.875C12.4327 2.875 12.8538 3.01536 13.2 3.275L20.2 8.525C20.4484 8.71129 20.65 8.95286 20.7889 9.23057C20.9277 9.50828 21 9.81451 21 10.125V19.625C21 20.1554 20.7893 20.6641 20.4142 21.0392C20.0391 21.4143 19.5304 21.625 19 21.625H5C4.46957 21.625 3.96086 21.4143 3.58579 21.0392C3.21071 20.6641 3 20.1554 3 19.625V10.125C3 9.81451 3.07229 9.50828 3.21115 9.23057C3.35 8.95286 3.55161 8.71129 3.8 8.525L10.8 3.275Z" fill="white"/>
</svg>
