<svg width="46" height="46" viewBox="0 0 46 46" fill="none" xmlns="http://www.w3.org/2000/svg">
<g filter="url(#filter0_di_426_1250)">
<rect x="3" y="3" width="40" height="40" rx="7.27273" fill="#E3E2E2" fill-opacity="0.2" shape-rendering="crispEdges"/>
<rect x="3" y="3" width="40" height="40" rx="7.27273" stroke="white" stroke-width="0.727273" shape-rendering="crispEdges"/>
<path d="M23.6317 34.364H15.4247C14.7549 34.364 14.1126 34.0979 13.639 33.6244C13.1655 33.1508 12.8994 32.5085 12.8994 31.8387V16.6872C12.8994 16.0175 13.1655 15.3752 13.639 14.9016C14.1126 14.428 14.7549 14.162 15.4247 14.162H30.5762C31.2459 14.162 31.8882 14.428 32.3618 14.9016C32.8354 15.3752 33.1014 16.0175 33.1014 16.6872V20.4751M28.0509 11.6367V16.6872M17.9499 11.6367V16.6872M12.8994 21.7377H28.0509M33.1014 25.5256L35.6267 28.0509M35.6267 28.0509H31.8388C31.2248 28.0508 30.62 28.2001 30.0765 28.4858C29.533 28.7714 29.067 29.1849 28.7188 29.6906C28.3706 30.1964 28.1506 30.7792 28.0776 31.3888C28.0047 31.9985 28.0811 32.6168 28.3002 33.1904C28.5193 33.7639 28.8745 34.2757 29.3353 34.6815C29.7961 35.0873 30.3487 35.375 30.9454 35.5198C31.5421 35.6646 32.165 35.6622 32.7606 35.5127C33.3561 35.3633 33.9064 35.0713 34.3641 34.662M35.6267 28.0509L33.1014 30.5761" stroke="black" stroke-width="2.52525" stroke-linecap="round" stroke-linejoin="round"/>
</g>
<defs>
<filter id="filter0_di_426_1250" x="0.212476" y="0.212232" width="45.575" height="45.5755" filterUnits="userSpaceOnUse" color-interpolation-filters="sRGB">
<feFlood flood-opacity="0" result="BackgroundImageFix"/>
<feColorMatrix in="SourceAlpha" type="matrix" values="0 0 0 0 0 0 0 0 0 0 0 0 0 0 0 0 0 0 127 0" result="hardAlpha"/>
<feOffset/>
<feGaussianBlur stdDeviation="1.21212"/>
<feComposite in2="hardAlpha" operator="out"/>
<feColorMatrix type="matrix" values="0 0 0 0 0 0 0 0 0 0 0 0 0 0 0 0 0 0 0.25 0"/>
<feBlend mode="normal" in2="BackgroundImageFix" result="effect1_dropShadow_426_1250"/>
<feBlend mode="normal" in="SourceGraphic" in2="effect1_dropShadow_426_1250" result="shape"/>
<feColorMatrix in="SourceAlpha" type="matrix" values="0 0 0 0 0 0 0 0 0 0 0 0 0 0 0 0 0 0 127 0" result="hardAlpha"/>
<feOffset/>
<feGaussianBlur stdDeviation="0.606061"/>
<feComposite in2="hardAlpha" operator="arithmetic" k2="-1" k3="1"/>
<feColorMatrix type="matrix" values="0 0 0 0 0 0 0 0 0 0 0 0 0 0 0 0 0 0 0.25 0"/>
<feBlend mode="normal" in2="shape" result="effect2_innerShadow_426_1250"/>
</filter>
</defs>
</svg>
