<svg width="46" height="46" viewBox="0 0 46 46" fill="none" xmlns="http://www.w3.org/2000/svg">
<g filter="url(#filter0_di_426_1321)">
<rect x="3" y="3" width="40" height="40" rx="7.27273" fill="#E3E2E2" fill-opacity="0.2" shape-rendering="crispEdges"/>
<rect x="3" y="3" width="40" height="40" rx="7.27273" stroke="white" stroke-width="0.727273" shape-rendering="crispEdges"/>
<path fill-rule="evenodd" clip-rule="evenodd" d="M14.1611 22.3688C14.1611 22.034 14.2942 21.7128 14.5309 21.476C14.7677 21.2392 15.0889 21.1062 15.4238 21.1062H16.6864C17.0213 21.1062 17.3424 21.2392 17.5792 21.476C17.816 21.7128 17.949 22.034 17.949 22.3688V23.6315C17.949 23.9663 17.816 24.2875 17.5792 24.5243C17.3424 24.7611 17.0213 24.8941 16.6864 24.8941H15.4238C15.0889 24.8941 14.7677 24.7611 14.5309 24.5243C14.2942 24.2875 14.1611 23.9663 14.1611 23.6315V22.3688ZM16.6864 22.3688V23.6315H15.4238V22.3688H16.6864ZM20.4743 21.1062C20.1394 21.1062 19.8182 21.2392 19.5815 21.476C19.3447 21.7128 19.2116 22.034 19.2116 22.3688V23.6315C19.2116 23.9663 19.3447 24.2875 19.5815 24.5243C19.8182 24.7611 20.1394 24.8941 20.4743 24.8941H21.7369C22.0718 24.8941 22.3929 24.7611 22.6297 24.5243C22.8665 24.2875 22.9995 23.9663 22.9995 23.6315V22.3688C22.9995 22.034 22.8665 21.7128 22.6297 21.476C22.3929 21.2392 22.0718 21.1062 21.7369 21.1062H20.4743ZM21.7369 22.3688H20.4743V23.6315H21.7369V22.3688ZM24.2621 22.3688C24.2621 22.034 24.3952 21.7128 24.632 21.476C24.8687 21.2392 25.1899 21.1062 25.5248 21.1062H26.7874C27.1223 21.1062 27.4434 21.2392 27.6802 21.476C27.917 21.7128 28.05 22.034 28.05 22.3688V23.6315C28.05 23.9663 27.917 24.2875 27.6802 24.5243C27.4434 24.7611 27.1223 24.8941 26.7874 24.8941H25.5248C25.1899 24.8941 24.8687 24.7611 24.632 24.5243C24.3952 24.2875 24.2621 23.9663 24.2621 23.6315V22.3688ZM25.5248 22.3688H26.7874V23.6315H25.5248V22.3688ZM15.4238 26.1567C15.0889 26.1567 14.7677 26.2897 14.5309 26.5265C14.2942 26.7633 14.1611 27.0845 14.1611 27.4193V28.682C14.1611 29.0168 14.2942 29.338 14.5309 29.5748C14.7677 29.8116 15.0889 29.9446 15.4238 29.9446H16.6864C17.0213 29.9446 17.3424 29.8116 17.5792 29.5748C17.816 29.338 17.949 29.0168 17.949 28.682V27.4193C17.949 27.0845 17.816 26.7633 17.5792 26.5265C17.3424 26.2897 17.0213 26.1567 16.6864 26.1567H15.4238ZM15.4238 27.4193V28.682H16.6864V27.4193H15.4238ZM19.2116 27.4193C19.2116 27.0845 19.3447 26.7633 19.5815 26.5265C19.8182 26.2897 20.1394 26.1567 20.4743 26.1567H21.7369C22.0718 26.1567 22.3929 26.2897 22.6297 26.5265C22.8665 26.7633 22.9995 27.0845 22.9995 27.4193V28.682C22.9995 29.0168 22.8665 29.338 22.6297 29.5748C22.3929 29.8116 22.0718 29.9446 21.7369 29.9446H20.4743C20.1394 29.9446 19.8182 29.8116 19.5815 29.5748C19.3447 29.338 19.2116 29.0168 19.2116 28.682V27.4193ZM20.4743 27.4193H21.7369V28.682H20.4743V27.4193Z" fill="black"/>
<path d="M29.9458 27.7349C30.1132 27.7349 30.2738 27.8014 30.3922 27.9198C30.5106 28.0382 30.5771 28.1987 30.5771 28.3662V29.6831L31.0234 30.1294C31.1384 30.2485 31.202 30.408 31.2006 30.5735C31.1992 30.739 31.1328 30.8974 31.0157 31.0144C30.8987 31.1315 30.7403 31.1979 30.5748 31.1993C30.4093 31.2007 30.2498 31.1371 30.1307 31.0221L29.3145 30.2058V28.3662C29.3145 28.1987 29.381 28.0382 29.4994 27.9198C29.6178 27.8014 29.7783 27.7349 29.9458 27.7349Z" fill="black"/>
<path fill-rule="evenodd" clip-rule="evenodd" d="M15.4256 12.268C15.4256 12.1006 15.4921 11.94 15.6105 11.8216C15.7289 11.7032 15.8895 11.6367 16.0569 11.6367C16.2243 11.6367 16.3849 11.7032 16.5033 11.8216C16.6217 11.94 16.6882 12.1006 16.6882 12.268V15.4246C16.6882 15.592 16.6217 15.7526 16.5033 15.871C16.3849 15.9894 16.2243 16.0559 16.0569 16.0559C15.8895 16.0559 15.7289 15.9894 15.6105 15.871C15.4921 15.7526 15.4256 15.592 15.4256 15.4246V14.7933H13.5316C13.3642 14.7933 13.2036 14.8598 13.0852 14.9782C12.9668 15.0966 12.9003 15.2572 12.9003 15.4246V17.9498H29.3145V15.4246C29.3145 15.2572 29.248 15.0966 29.1296 14.9782C29.0112 14.8598 28.8506 14.7933 28.6831 14.7933H26.7892V13.5307H28.6831C29.1855 13.5307 29.6672 13.7302 30.0224 14.0854C30.3776 14.4406 30.5771 14.9223 30.5771 15.4246V25.5698C31.6829 25.7296 32.6871 26.3023 33.3877 27.1726C34.0883 28.0429 34.4333 29.1462 34.3533 30.2606C34.2733 31.375 33.7742 32.4178 32.9565 33.1791C32.1388 33.9404 31.063 34.3638 29.9458 34.364C29.2332 34.3646 28.5312 34.1926 27.8996 33.8628C27.268 33.533 26.7256 33.0551 26.3189 32.4701H13.5316C13.0293 32.4701 12.5476 32.2705 12.1924 31.9153C11.8372 31.5601 11.6377 31.0784 11.6377 30.5761V15.4246C11.6377 14.9223 11.8372 14.4406 12.1924 14.0854C12.5476 13.7302 13.0293 13.5307 13.5316 13.5307H15.4256V12.268ZM25.5266 29.9448C25.5263 28.8819 25.9091 27.8546 26.6048 27.0511C27.3005 26.2475 28.2625 25.7216 29.3145 25.5698V19.2125H12.9003V30.5761C12.9003 30.7435 12.9668 30.9041 13.0852 31.0225C13.2036 31.1409 13.3642 31.2074 13.5316 31.2074H25.7097C25.5879 30.7976 25.5262 30.3723 25.5266 29.9448ZM29.9458 33.1014C30.7829 33.1014 31.5858 32.7688 32.1778 32.1768C32.7698 31.5849 33.1023 30.782 33.1023 29.9448C33.1023 29.1076 32.7698 28.3047 32.1778 27.7128C31.5858 27.1208 30.7829 26.7882 29.9458 26.7882C29.1086 26.7882 28.3057 27.1208 27.7137 27.7128C27.1218 28.3047 26.7892 29.1076 26.7892 29.9448C26.7892 30.782 27.1218 31.5849 27.7137 32.1768C28.3057 32.7688 29.1086 33.1014 29.9458 33.1014Z" fill="black"/>
<path d="M24.8946 16.0559C24.7272 16.0559 24.5666 15.9894 24.4482 15.871C24.3298 15.7526 24.2633 15.592 24.2633 15.4246V14.7933H17.9502V13.5307H24.2633V12.268C24.2633 12.1006 24.3298 11.94 24.4482 11.8216C24.5666 11.7032 24.7272 11.6367 24.8946 11.6367C25.0621 11.6367 25.2227 11.7032 25.341 11.8216C25.4594 11.94 25.526 12.1006 25.526 12.268V15.4246C25.526 15.592 25.4594 15.7526 25.341 15.871C25.2227 15.9894 25.0621 16.0559 24.8946 16.0559Z" fill="black"/>
</g>
<defs>
<filter id="filter0_di_426_1321" x="0.212476" y="0.212232" width="45.575" height="45.5755" filterUnits="userSpaceOnUse" color-interpolation-filters="sRGB">
<feFlood flood-opacity="0" result="BackgroundImageFix"/>
<feColorMatrix in="SourceAlpha" type="matrix" values="0 0 0 0 0 0 0 0 0 0 0 0 0 0 0 0 0 0 127 0" result="hardAlpha"/>
<feOffset/>
<feGaussianBlur stdDeviation="1.21212"/>
<feComposite in2="hardAlpha" operator="out"/>
<feColorMatrix type="matrix" values="0 0 0 0 0 0 0 0 0 0 0 0 0 0 0 0 0 0 0.25 0"/>
<feBlend mode="normal" in2="BackgroundImageFix" result="effect1_dropShadow_426_1321"/>
<feBlend mode="normal" in="SourceGraphic" in2="effect1_dropShadow_426_1321" result="shape"/>
<feColorMatrix in="SourceAlpha" type="matrix" values="0 0 0 0 0 0 0 0 0 0 0 0 0 0 0 0 0 0 127 0" result="hardAlpha"/>
<feOffset/>
<feGaussianBlur stdDeviation="0.606061"/>
<feComposite in2="hardAlpha" operator="arithmetic" k2="-1" k3="1"/>
<feColorMatrix type="matrix" values="0 0 0 0 0 0 0 0 0 0 0 0 0 0 0 0 0 0 0.25 0"/>
<feBlend mode="normal" in2="shape" result="effect2_innerShadow_426_1321"/>
</filter>
</defs>
</svg>
