<svg width="85" height="84" viewBox="0 0 85 84" fill="none" xmlns="http://www.w3.org/2000/svg">
<path fill-rule="evenodd" clip-rule="evenodd" d="M42.5 12C39.3174 12 36.2652 13.2643 34.0147 15.5147C31.7643 17.7652 30.5 20.8174 30.5 24V30H54.5V24C54.5 20.8174 53.2357 17.7652 50.9853 15.5147C48.7348 13.2643 45.6826 12 42.5 12ZM18.5 24V30C16.1131 30 13.8239 30.9482 12.136 32.636C10.4482 34.3239 9.5 36.6131 9.5 39V75C9.5 77.3869 10.4482 79.6761 12.136 81.364C13.8239 83.0518 16.1131 84 18.5 84H66.5C68.8869 84 71.1761 83.0518 72.864 81.364C74.5518 79.6761 75.5 77.3869 75.5 75V39C75.5 36.6131 74.5518 34.3239 72.864 32.636C71.1761 30.9482 68.8869 30 66.5 30V24C66.5 17.6348 63.9714 11.5303 59.4706 7.02944C54.9697 2.52856 48.8652 0 42.5 0C36.1348 0 30.0303 2.52856 25.5294 7.02944C21.0286 11.5303 18.5 17.6348 18.5 24ZM42.5 64.5C43.4849 64.5 44.4602 64.306 45.3701 63.9291C46.2801 63.5522 47.1069 62.9997 47.8033 62.3033C48.4997 61.6069 49.0522 60.7801 49.4291 59.8701C49.806 58.9602 50 57.9849 50 57C50 56.0151 49.806 55.0398 49.4291 54.1299C49.0522 53.2199 48.4997 52.3931 47.8033 51.6967C47.1069 51.0003 46.2801 50.4478 45.3701 50.0709C44.4602 49.694 43.4849 49.5 42.5 49.5C40.5109 49.5 38.6032 50.2902 37.1967 51.6967C35.7902 53.1032 35 55.0109 35 57C35 58.9891 35.7902 60.8968 37.1967 62.3033C38.6032 63.7098 40.5109 64.5 42.5 64.5Z" fill="#E63946"/>
</svg>
