<svg width="44" height="45" viewBox="0 0 44 45" fill="none" xmlns="http://www.w3.org/2000/svg">
<path fill-rule="evenodd" clip-rule="evenodd" d="M25.0517 10.1705C25.0517 7.70993 26.0292 5.35011 27.7691 3.6102C29.509 1.87029 31.8688 0.892822 34.3294 0.892822C36.79 0.892822 39.1499 1.87029 40.8898 3.6102C42.6297 5.35011 43.6071 7.70993 43.6071 10.1705C43.6071 12.6311 42.6297 14.991 40.8898 16.7309C39.1499 18.4708 36.79 19.4482 34.3294 19.4482C31.8688 19.4482 29.509 18.4708 27.7691 16.7309C26.0292 14.991 25.0517 12.6311 25.0517 10.1705ZM8.80943 9.30939C10.338 7.78188 12.1929 6.62067 14.2348 5.91302C16.2766 5.20537 18.4523 4.96968 20.5983 5.22368C20.8588 5.24854 21.1118 5.32521 21.3422 5.4492C21.5727 5.57318 21.7761 5.74198 21.9405 5.94567C22.1048 6.14935 22.2268 6.38383 22.2992 6.63532C22.3717 6.88681 22.3931 7.15024 22.3623 7.41014C22.3316 7.67004 22.2491 7.92117 22.1199 8.14878C21.9907 8.37638 21.8174 8.57587 21.61 8.73553C21.4026 8.89519 21.1654 9.01179 20.9123 9.0785C20.6593 9.1452 20.3954 9.16066 20.1363 9.12397C18.682 8.95118 17.2077 9.08861 15.8104 9.52721C14.4131 9.9658 13.1247 10.6956 12.0301 11.6685C10.9355 12.6413 10.0595 13.8352 9.45992 15.1713C8.86035 16.5074 8.55081 17.9555 8.55171 19.42V30.2094C8.55171 31.1334 8.35686 32.0385 7.99229 32.8682H29.8446C29.4746 32.0306 29.283 31.1251 29.282 30.2094V24.3165C29.282 24.0586 29.3328 23.8032 29.4315 23.5648C29.5302 23.3265 29.6749 23.11 29.8573 22.9276C30.0397 22.7452 30.2563 22.6005 30.4946 22.5018C30.7329 22.4031 30.9883 22.3523 31.2463 22.3523C31.5042 22.3523 31.7597 22.4031 31.998 22.5018C32.2363 22.6005 32.4528 22.7452 32.6352 22.9276C32.8176 23.11 32.9623 23.3265 33.061 23.5648C33.1598 23.8032 33.2106 24.0586 33.2106 24.3165V30.2062C33.2114 30.9117 33.4922 31.588 33.9914 32.0865C34.4905 32.5851 35.1671 32.8651 35.8726 32.8651C36.3935 32.8651 36.8932 33.0721 37.2615 33.4404C37.6299 33.8088 37.8369 34.3084 37.8369 34.8294C37.8369 35.3504 37.6299 35.85 37.2615 36.2184C36.8932 36.5867 36.3935 36.7937 35.8726 36.7937H1.96429C1.44332 36.7937 0.943701 36.5867 0.575326 36.2184C0.206951 35.85 0 35.3504 0 34.8294C0 34.3084 0.206951 33.8088 0.575326 33.4404C0.943701 33.0721 1.44332 32.8651 1.96429 32.8651C2.66946 32.8651 3.34575 32.585 3.84438 32.0863C4.34301 31.5877 4.62314 30.9114 4.62314 30.2062V19.4168C4.62314 15.6265 6.13171 11.9903 8.80943 9.30939ZM13.8694 42.5357C13.8694 41.4514 14.7494 40.5714 15.8369 40.5714H22C22.521 40.5714 23.0206 40.7783 23.389 41.1467C23.7573 41.5151 23.9643 42.0147 23.9643 42.5357C23.9643 43.0566 23.7573 43.5563 23.389 43.9246C23.0206 44.293 22.521 44.5 22 44.5H15.84C15.319 44.5 14.8194 44.293 14.451 43.9246C14.0827 43.5563 13.8757 43.0566 13.8757 42.5357" fill="white"/>
<circle cx="34.5" cy="10" r="9.5" fill="#E63946"/>
</svg>
