<svg width="20" height="21" viewBox="0 0 20 21" fill="none" xmlns="http://www.w3.org/2000/svg">
<path d="M10 0.625C4.48 0.625 0 5.105 0 10.625C0 16.145 4.48 20.625 10 20.625C15.52 20.625 20 16.145 20 10.625C20 5.105 15.52 0.625 10 0.625ZM10 4.625C11.93 4.625 13.5 6.195 13.5 8.125C13.5 10.055 11.93 11.625 10 11.625C8.07 11.625 6.5 10.055 6.5 8.125C6.5 6.195 8.07 4.625 10 4.625ZM10 18.625C7.97 18.625 5.57 17.805 3.86 15.745C5.61182 14.3712 7.77375 13.6246 10 13.6246C12.2262 13.6246 14.3882 14.3712 16.14 15.745C14.43 17.805 12.03 18.625 10 18.625Z" fill="white"/>
</svg>
