<svg width="46" height="46" viewBox="0 0 46 46" fill="none" xmlns="http://www.w3.org/2000/svg">
<g filter="url(#filter0_di_426_1244)">
<rect x="3" y="3" width="40" height="40" rx="7.27273" fill="#E3E2E2" fill-opacity="0.2" shape-rendering="crispEdges"/>
<rect x="3" y="3" width="40" height="40" rx="7.27273" stroke="white" stroke-width="0.727273" shape-rendering="crispEdges"/>
<g clip-path="url(#clip0_426_1244)">
<path d="M29.5684 24.7021C29.0554 25.1262 28.6165 25.5997 28.2515 26.1225C27.4328 25.7082 26.5795 25.4024 25.6917 25.2052C24.8039 25.0079 23.8964 24.9043 22.9692 24.8944C21.9039 24.8944 20.8878 25.0276 19.9211 25.2939C18.9544 25.5603 18.0469 25.9351 17.1986 26.4185C16.3503 26.9018 15.5907 27.4887 14.92 28.1792C14.2492 28.8697 13.6623 29.6342 13.1592 30.4727C12.6561 31.3111 12.2813 32.2236 12.0347 33.21C11.788 34.1964 11.6549 35.2125 11.6352 36.2581H9.74121C9.74121 34.8179 9.95329 33.432 10.3775 32.1003C10.8016 30.7686 11.4132 29.5504 12.2122 28.4456C13.0112 27.3408 13.9631 26.3741 15.0679 25.5455C16.1727 24.7169 17.4255 24.0806 18.8262 23.6367C18.2935 23.2816 17.82 22.8723 17.4057 22.4086C16.9914 21.945 16.6363 21.4419 16.3404 20.8994C16.0445 20.3569 15.8176 19.7847 15.6598 19.183C15.5019 18.5813 15.423 17.9599 15.423 17.3187C15.423 16.2731 15.6203 15.2916 16.0149 14.3742C16.4095 13.4568 16.952 12.6578 17.6425 11.9772C18.333 11.2965 19.1369 10.754 20.0543 10.3496C20.9717 9.94514 21.9532 9.74292 22.9988 9.74292C24.0444 9.74292 25.0259 9.94021 25.9433 10.3348C26.8606 10.7293 27.6597 11.2719 28.3403 11.9624C29.0209 12.6529 29.5635 13.4568 29.9679 14.3742C30.3723 15.2916 30.5745 16.2731 30.5745 17.3187C30.5745 17.9599 30.4956 18.5813 30.3378 19.183C30.18 19.7847 29.958 20.3618 29.672 20.9142C29.3859 21.4666 29.0259 21.9697 28.5918 22.4234C28.1578 22.8772 27.6794 23.2866 27.1566 23.6515C27.5807 23.7896 27.9901 23.9425 28.3847 24.1102C28.7792 24.2779 29.1738 24.4752 29.5684 24.7021ZM17.317 17.3187C17.317 18.1078 17.4649 18.8427 17.7609 19.5233C18.0568 20.204 18.4612 20.8057 18.9742 21.3285C19.4871 21.8513 20.0888 22.2607 20.7793 22.5566C21.4698 22.8525 22.2096 23.0005 22.9988 23.0005C23.7781 23.0005 24.513 22.8525 25.2035 22.5566C25.8939 22.2607 26.4957 21.8562 27.0086 21.3433C27.5216 20.8304 27.9309 20.2286 28.2367 19.5381C28.5425 18.8476 28.6905 18.1078 28.6806 17.3187C28.6806 16.5394 28.5326 15.8045 28.2367 15.114C27.9408 14.4235 27.5364 13.8218 27.0234 13.3089C26.5105 12.7959 25.9038 12.3865 25.2035 12.0808C24.5031 11.775 23.7682 11.627 22.9988 11.6369C22.2096 11.6369 21.4748 11.7848 20.7941 12.0808C20.1135 12.3767 19.5118 12.7811 18.989 13.2941C18.4662 13.807 18.0568 14.4137 17.7609 15.114C17.4649 15.8144 17.317 16.5493 17.317 17.3187ZM33.445 24.8796C34.0961 24.8796 34.7126 25.0029 35.2946 25.2495C35.8766 25.4962 36.3797 25.8365 36.8038 26.2705C37.228 26.7045 37.5683 27.2076 37.8248 27.7797C38.0813 28.3519 38.2095 28.9684 38.2095 29.6293C38.2095 30.2803 38.0862 30.8919 37.8396 31.464C37.593 32.0362 37.2527 32.5392 36.8186 32.9733C36.3846 33.4073 35.8766 33.7476 35.2946 33.9942C34.7126 34.2408 34.0961 34.3691 33.445 34.3789C32.4882 34.3789 31.6152 34.1126 30.8261 33.5799L26.5055 37.9005C26.3181 38.0879 26.0962 38.1816 25.8397 38.1816C25.5832 38.1816 25.3613 38.0879 25.1739 37.9005C24.9864 37.7131 24.8927 37.4911 24.8927 37.2346C24.8927 36.9782 24.9864 36.7562 25.1739 36.5688L29.4944 32.2482C28.9617 31.4591 28.6954 30.5861 28.6954 29.6293C28.6954 28.9782 28.8187 28.3667 29.0653 27.7945C29.3119 27.2224 29.6522 26.7193 30.0863 26.2853C30.5203 25.8513 31.0234 25.511 31.5955 25.2643C32.1676 25.0177 32.7841 24.8895 33.445 24.8796ZM33.445 32.485C33.8396 32.485 34.2095 32.411 34.5548 32.263C34.9 32.1151 35.2009 31.9129 35.4574 31.6564C35.7138 31.3999 35.921 31.0941 36.0788 30.739C36.2366 30.3839 36.3155 30.014 36.3155 29.6293C36.3155 29.2347 36.2416 28.8648 36.0936 28.5196C35.9456 28.1743 35.7385 27.8734 35.4722 27.617C35.2058 27.3605 34.905 27.1534 34.5696 26.9955C34.2342 26.8377 33.8593 26.7637 33.445 26.7736C33.0505 26.7736 32.6806 26.8476 32.3353 26.9955C31.9901 27.1435 31.6892 27.3506 31.4327 27.617C31.1763 27.8833 30.9691 28.1842 30.8113 28.5196C30.6535 28.8549 30.5795 29.2248 30.5893 29.6293C30.5893 30.0239 30.6633 30.3938 30.8113 30.739C30.9593 31.0843 31.1615 31.3851 31.4179 31.6416C31.6744 31.8981 31.9802 32.1052 32.3353 32.263C32.6904 32.4209 33.0603 32.4949 33.445 32.485Z" fill="black"/>
</g>
</g>
<defs>
<filter id="filter0_di_426_1244" x="0.212476" y="0.212232" width="45.575" height="45.5755" filterUnits="userSpaceOnUse" color-interpolation-filters="sRGB">
<feFlood flood-opacity="0" result="BackgroundImageFix"/>
<feColorMatrix in="SourceAlpha" type="matrix" values="0 0 0 0 0 0 0 0 0 0 0 0 0 0 0 0 0 0 127 0" result="hardAlpha"/>
<feOffset/>
<feGaussianBlur stdDeviation="1.21212"/>
<feComposite in2="hardAlpha" operator="out"/>
<feColorMatrix type="matrix" values="0 0 0 0 0 0 0 0 0 0 0 0 0 0 0 0 0 0 0.25 0"/>
<feBlend mode="normal" in2="BackgroundImageFix" result="effect1_dropShadow_426_1244"/>
<feBlend mode="normal" in="SourceGraphic" in2="effect1_dropShadow_426_1244" result="shape"/>
<feColorMatrix in="SourceAlpha" type="matrix" values="0 0 0 0 0 0 0 0 0 0 0 0 0 0 0 0 0 0 127 0" result="hardAlpha"/>
<feOffset/>
<feGaussianBlur stdDeviation="0.606061"/>
<feComposite in2="hardAlpha" operator="arithmetic" k2="-1" k3="1"/>
<feColorMatrix type="matrix" values="0 0 0 0 0 0 0 0 0 0 0 0 0 0 0 0 0 0 0.25 0"/>
<feBlend mode="normal" in2="shape" result="effect2_innerShadow_426_1244"/>
</filter>
<clipPath id="clip0_426_1244">
<rect width="30.303" height="30.303" fill="white" transform="translate(7.84863 7.84839)"/>
</clipPath>
</defs>
</svg>
